<svg aria-hidden="true" style="position: absolute; width: 0; height: 0; overflow: hidden;"
    version="1.1" xmlns="http://www.w3.org/2000/svg" xmlns:xlink="http://www.w3.org/1999/xlink">
    <defs>
        <symbol id="adults" viewBox="0 0 32 32">
            <path
                d="M9.067 24.133h-4.4c-0.267 0-0.4-0.133-0.533-0.267s-0.267-0.4-0.133-0.667c0.8-2.267 2.8-3.6 5.067-3.6 2.8 0 5.067-2.4 5.067-5.2s-2.267-5.467-5.067-5.467c-2.8 0-5.067 2.4-5.067 5.333 0 1.333 0.533 2.667 1.333 3.6-1.733 0.933-3.067 2.4-3.867 4.4-0.267 0.933-0.133 2.133 0.533 3.067s1.6 1.467 2.667 1.467h4.4c0.8 0 1.333-0.533 1.333-1.333s-0.533-1.333-1.333-1.333zM6.667 14.267c0-1.467 1.067-2.533 2.4-2.533s2.4 1.2 2.4 2.533c0 1.467-1.067 2.533-2.4 2.533s-2.4-1.2-2.4-2.533z"></path>
            <path
                d="M30.533 21.467c-0.933-2.533-2.8-4.4-4.933-5.467 1.2-1.067 1.867-2.667 1.867-4.533 0-3.467-2.667-6.267-5.867-6.267s-5.867 2.8-5.867 6.267c0 1.733 0.667 3.333 1.867 4.533-2.133 1.067-4 2.933-4.933 5.467-0.667 1.2-0.4 2.533 0.267 3.6s1.867 1.6 3.067 1.6h11.067c1.2 0 2.4-0.667 3.067-1.6 0.8-1.067 0.933-2.4 0.4-3.6zM18.267 11.6c0-2 1.467-3.6 3.2-3.6s3.2 1.6 3.2 3.6-1.467 3.6-3.2 3.6c-1.733 0-3.2-1.733-3.2-3.6zM27.867 23.6c-0.133 0.133-0.4 0.533-0.8 0.533h-11.067c-0.533 0-0.8-0.4-0.8-0.533-0.133-0.133-0.4-0.667-0.133-1.2 1.067-2.8 3.733-4.667 6.533-4.667s5.467 1.867 6.533 4.667c0.133 0.533-0.133 1.067-0.267 1.2z"></path>
        </symbol>
        <symbol id="icon-air" viewBox="0 0 37 32">
            <path
                d="M18.253 0c-1.251 0-2.463 0.427-3.431 1.208s-1.63 1.867-1.876 3.075l-0.097 0.479c-0.026 0.107-0.029 0.218-0.010 0.327s0.060 0.212 0.12 0.305c0.060 0.093 0.139 0.172 0.232 0.234s0.197 0.105 0.306 0.127c0.11 0.022 0.223 0.021 0.332-0.001s0.213-0.066 0.305-0.129 0.17-0.143 0.23-0.236c0.060-0.093 0.1-0.197 0.118-0.306l0.098-0.478c0.185-0.895 0.701-1.692 1.447-2.234s1.671-0.793 2.595-0.703c0.923 0.090 1.78 0.515 2.404 1.191s0.97 1.557 0.973 2.471c0 0.979-0.395 1.919-1.098 2.611s-1.657 1.082-2.652 1.083h-12.083c-0.221 0-0.433 0.086-0.589 0.24s-0.244 0.363-0.244 0.58c0 0.218 0.088 0.426 0.244 0.58s0.368 0.24 0.589 0.24h12.083c1.413-0.034 2.757-0.611 3.745-1.607s1.541-2.333 1.541-3.725-0.552-2.729-1.539-3.726c-0.987-0.997-2.33-1.574-3.744-1.609zM27.833 7.385c-1.105 0-2.165 0.432-2.946 1.202s-1.22 1.813-1.22 2.901c0 0.218 0.088 0.426 0.244 0.58s0.368 0.24 0.589 0.24 0.433-0.086 0.589-0.24c0.156-0.154 0.244-0.363 0.244-0.58 0-0.487 0.147-0.963 0.421-1.368s0.665-0.72 1.122-0.907c0.457-0.186 0.959-0.235 1.444-0.14s0.93 0.329 1.28 0.674c0.35 0.344 0.588 0.783 0.684 1.26s0.047 0.972-0.142 1.422-0.51 0.834-0.921 1.105c-0.411 0.271-0.895 0.415-1.389 0.415h-21.667c-0.221 0-0.433 0.087-0.589 0.24s-0.244 0.363-0.244 0.58c0 0.218 0.088 0.426 0.244 0.58s0.368 0.24 0.589 0.24h16.25c0.553 0.001 1.082 0.218 1.472 0.604s0.608 0.908 0.607 1.452c-0.001 0.544-0.222 1.065-0.613 1.449s-0.922 0.599-1.474 0.598c-0.498 0-0.979-0.173-1.36-0.489s-0.635-0.754-0.718-1.237l-0.008-0.049c-0.015-0.109-0.052-0.214-0.109-0.308s-0.132-0.177-0.222-0.242-0.192-0.112-0.3-0.138c-0.109-0.026-0.221-0.030-0.331-0.012s-0.215 0.058-0.31 0.116c-0.094 0.059-0.175 0.136-0.239 0.226s-0.108 0.192-0.131 0.3c-0.023 0.108-0.023 0.219-0.002 0.326l0.008 0.049c0.148 0.866 0.603 1.653 1.285 2.22s1.545 0.878 2.437 0.878c0.995 0 1.951-0.388 2.655-1.081s1.101-1.632 1.103-2.612c0-0.76-0.233-1.465-0.632-2.051h2.298c1.105 0 2.165-0.432 2.946-1.202s1.22-1.813 1.22-2.901-0.439-2.132-1.22-2.901c-0.781-0.769-1.841-1.202-2.946-1.202z"></path>
            <path
                d="M18.253 0l0.165-6.665-0.083-0.002h-0.083l0.001 6.667zM12.947 4.283l-6.533-1.329-0.002 0.011 6.535 1.318zM12.85 4.762l6.483 1.554 0.028-0.117 0.024-0.118-6.535-1.318zM14.483 5.084l-6.53-1.345-0.025 0.123-0.021 0.124 6.576 1.098zM14.582 4.606v0zM22 5.332h6.667v-0.017l-6.667 0.017zM18.25 9.026v6.667h0.003l-0.003-6.667zM5.333 9.846v0zM18.25 10.667v6.667h0.080l0.080-0.002-0.161-6.665zM25.333 11.487v0zM5.333 14.769v0zM22.417 15.59l0.013-6.667h-0.013v6.667zM22.408 19.692l0.013-6.667h-0.018l0.005 6.667zM20.33 17.966l-6.573 1.113 0.002 0.011 0.002 0.011 6.569-1.135zM20.322 17.917l-6.605 0.909 0.014 0.102 0.017 0.102 6.573-1.113zM18.678 18.186l6.573-1.113-0.017-0.099-0.020-0.099-6.537 1.311zM18.687 18.235l-6.573 1.113 0.002 0.011 6.571-1.124zM22.408 21.333l0.003-6.667h-0.004l0.001 6.667zM26.167 17.641l6.667 0.012v-0.012h-6.667zM25.535 15.59v-6.667h-12.595l7.082 10.415 5.513-3.749zM18.252-6.667c-2.764 0.001-5.456 0.943-7.616 2.687l8.374 10.376c-0.226 0.182-0.493 0.271-0.755 0.271l-0.003-13.333zM10.636-3.98c-2.163 1.746-3.664 4.192-4.222 6.934l13.066 2.658c-0.066 0.327-0.242 0.599-0.47 0.783l-8.374-10.376zM6.412 2.965l-0.097 0.479 13.070 2.637 0.097-0.479-13.070-2.637zM6.367 3.208c-0.237 0.99-0.27 2.019-0.096 3.023l13.136-2.283c0.137 0.787 0.111 1.593-0.075 2.369l-12.966-3.108zM6.271 6.231c0.174 1.004 0.552 1.958 1.104 2.805l11.168-7.283c0.432 0.662 0.727 1.408 0.864 2.195l-13.136 2.283zM7.376 9.036c0.552 0.847 1.268 1.569 2.098 2.127l7.435-11.068c0.646 0.434 1.204 0.996 1.635 1.658l-11.168 7.283zM9.474 11.163c0.831 0.558 1.761 0.942 2.736 1.134l2.576-13.082c0.755 0.149 1.477 0.446 2.123 0.88l-7.435 11.068zM12.21 12.296c0.974 0.192 1.977 0.189 2.95-0.009l-2.66-13.065c0.754-0.154 1.531-0.156 2.286-0.007l-2.576 13.082zM15.16 12.287c0.973-0.198 1.901-0.588 2.728-1.152l-7.506-11.020c0.643-0.438 1.364-0.741 2.118-0.894l2.66 13.065zM17.888 11.135c0.827-0.563 1.538-1.29 2.085-2.141l-11.216-7.21c0.427-0.665 0.982-1.231 1.625-1.669l7.506 11.020zM19.973 8.995c0.547-0.851 0.918-1.807 1.086-2.812l-13.151-2.196c0.132-0.788 0.422-1.536 0.85-2.201l11.216 7.21zM21.013 6.428l0.098-0.478-13.059-2.689-0.098 0.478 13.059 2.689zM21.111 5.953c-0.154 0.749-0.58 1.389-1.163 1.812l-7.837-10.787c-2.076 1.509-3.534 3.741-4.058 6.28l13.058 2.694zM19.947 7.766c-0.58 0.422-1.282 0.606-1.973 0.539l1.297-13.27c-2.537-0.248-5.088 0.438-7.162 1.944l7.837 10.787zM17.975 8.305c-0.691-0.068-1.353-0.387-1.849-0.925l9.803-9.038c-1.744-1.891-4.119-3.059-6.656-3.307l-1.297 13.27zM16.126 7.38c-0.499-0.541-0.791-1.264-0.793-2.032l13.333-0.033c-0.007-2.596-0.992-5.079-2.738-6.973l-9.803 9.038zM15.333 5.332c0-0.822 0.332-1.589 0.89-2.138l9.357 9.499c1.964-1.935 3.087-4.58 3.087-7.361h-13.333zM16.223 3.194c0.554-0.546 1.284-0.834 2.024-0.835l0.006 13.333c2.729-0.001 5.367-1.069 7.327-3l-9.357-9.499zM18.25 2.359h-12.083v13.333h12.083v-13.333zM6.167 2.359c-1.956 0-3.852 0.764-5.267 2.157l9.355 9.501c-1.102 1.085-2.574 1.676-4.088 1.676v-13.333zM0.9 4.516c-1.418 1.396-2.233 3.311-2.233 5.331h13.333c0 1.584-0.64 3.082-1.745 4.17l-9.355-9.501zM-1.333 9.846c0 2.019 0.816 3.935 2.233 5.331l9.355-9.501c1.105 1.088 1.745 2.586 1.745 4.17h-13.333zM0.9 15.177c1.414 1.392 3.311 2.157 5.267 2.157v-13.333c1.514 0 2.986 0.591 4.088 1.676l-9.355 9.501zM6.167 17.333h12.083v-13.333h-12.083v13.333zM18.411 17.331c3.12-0.075 6.107-1.348 8.318-3.578l-9.469-9.387c0.236-0.238 0.536-0.357 0.829-0.364l0.322 13.329zM26.729 13.753c2.214-2.233 3.472-5.252 3.473-8.416l-13.333-0.004c0-0.38 0.152-0.725 0.391-0.967l9.469 9.387zM30.202 5.337c0.001-3.164-1.255-6.184-3.468-8.418l-9.475 9.381c-0.239-0.241-0.391-0.587-0.391-0.967l13.333 0.004zM26.734-3.081c-2.209-2.232-5.196-3.506-8.316-3.583l-0.33 13.329c-0.293-0.007-0.593-0.127-0.829-0.365l9.475-9.381zM27.833 0.718c-2.84 0-5.584 1.11-7.624 3.118l9.355 9.501c-0.477 0.469-1.101 0.715-1.731 0.715v-13.333zM20.21 3.836c-2.043 2.011-3.21 4.762-3.21 7.651h13.333c0 0.714-0.289 1.377-0.769 1.849l-9.355-9.501zM17 11.487c0 2.019 0.816 3.935 2.233 5.331l9.355-9.501c1.105 1.088 1.745 2.586 1.745 4.17h-13.333zM19.233 16.818c1.414 1.392 3.311 2.157 5.267 2.157v-13.333c1.514 0 2.987 0.591 4.088 1.676l-9.355 9.501zM24.5 18.974c1.956 0 3.852-0.764 5.267-2.157l-9.355-9.501c1.102-1.085 2.574-1.676 4.088-1.676v13.333zM29.767 16.818c1.418-1.396 2.233-3.311 2.233-5.331h-13.333c0-1.584 0.64-3.082 1.745-4.17l9.355 9.501zM32 11.487c0 0.855-0.258 1.682-0.729 2.376l-11.033-7.487c-1.020 1.504-1.572 3.282-1.572 5.111h13.333zM31.271 13.863c-0.47 0.693-1.127 1.217-1.877 1.523l-5.035-12.346c-1.663 0.678-3.101 1.834-4.121 3.336l11.033 7.487zM29.394 15.386c-0.749 0.305-1.567 0.384-2.355 0.229l2.563-13.085c-1.758-0.344-3.581-0.168-5.243 0.509l5.035 12.346zM27.040 15.615c-0.789-0.154-1.527-0.538-2.116-1.118l9.355-9.501c-1.288-1.269-2.918-2.121-4.676-2.466l-2.563 13.085zM24.924 14.497c-0.59-0.581-1.004-1.334-1.173-2.17l13.069-2.64c-0.362-1.791-1.252-3.421-2.542-4.691l-9.355 9.501zM23.751 12.327c-0.169-0.836-0.081-1.702 0.247-2.483l12.29 5.17c0.707-1.681 0.894-3.536 0.532-5.327l-13.069 2.64zM23.998 9.844c0.328-0.78 0.877-1.43 1.56-1.88l7.328 11.139c1.506-0.991 2.695-2.409 3.402-4.089l-12.29-5.17zM25.558 7.964c0.682-0.449 1.474-0.682 2.275-0.682v13.333c1.79 0 3.548-0.522 5.053-1.512l-7.328-11.139zM27.833 7.282h-21.667v13.333h21.667v-13.333zM6.167 7.282c-1.956 0-3.852 0.764-5.267 2.157l9.355 9.501c-1.102 1.085-2.574 1.676-4.088 1.676v-13.333zM0.9 9.439c-1.418 1.396-2.233 3.311-2.233 5.331h13.333c0 1.584-0.64 3.082-1.745 4.17l-9.355-9.501zM-1.333 14.769c0 2.019 0.816 3.935 2.233 5.331l9.355-9.501c1.105 1.088 1.745 2.586 1.745 4.17h-13.333zM0.9 20.1c1.414 1.392 3.311 2.157 5.267 2.157v-13.333c1.514 0 2.986 0.591 4.088 1.676l-9.355 9.501zM6.167 22.256h16.25v-13.333h-16.25v13.333zM22.404 22.256c-1.183-0.002-2.336-0.466-3.202-1.322l9.374-9.482c-1.645-1.627-3.858-2.525-6.146-2.529l-0.026 13.333zM19.202 20.935c-0.869-0.859-1.375-2.045-1.373-3.303l13.333 0.027c0.005-2.346-0.938-4.576-2.587-6.206l-9.374 9.482zM17.829 17.632c0.003-1.258 0.513-2.441 1.386-3.297l9.336 9.519c1.655-1.623 2.607-3.85 2.612-6.195l-13.333-0.027zM19.215 14.335c0.869-0.852 2.024-1.311 3.207-1.309l-0.026 13.333c2.288 0.005 4.504-0.885 6.155-2.505l-9.336-9.519zM22.404 13.026c1.049-0.001 2.079 0.363 2.905 1.050l-8.519 10.257c1.587 1.318 3.58 2.029 5.624 2.027l-0.009-13.333zM25.308 14.075c0.828 0.688 1.402 1.66 1.591 2.756l-13.139 2.27c0.356 2.061 1.439 3.911 3.028 5.231l8.519-10.257zM26.903 16.853l-0.008-0.049-13.146 2.225 0.008 0.049 13.146-2.225zM26.926 17.008c-0.139-1.007-0.481-1.972-1.001-2.837l-11.424 6.875c-0.407-0.676-0.675-1.431-0.783-2.221l13.209-1.818zM25.925 14.171c-0.521-0.865-1.208-1.611-2.016-2.198l-7.837 10.787c-0.629-0.457-1.165-1.038-1.572-1.714l11.424-6.875zM23.909 11.973c-0.808-0.587-1.722-1.004-2.686-1.232l-3.065 12.976c-0.747-0.177-1.457-0.5-2.085-0.957l7.837-10.787zM21.223 10.741c-0.964-0.228-1.964-0.262-2.941-0.102l2.155 13.158c-0.757 0.124-1.531 0.097-2.279-0.079l3.065-12.976zM18.282 10.638c-0.977 0.16-1.917 0.512-2.762 1.040l7.061 11.31c-0.657 0.41-1.386 0.683-2.143 0.807l-2.155-13.158zM15.519 11.679c-0.846 0.528-1.583 1.223-2.162 2.047l10.907 7.669c-0.453 0.644-1.027 1.185-1.684 1.595l-7.061-11.31zM13.357 13.726c-0.58 0.825-0.989 1.761-1.199 2.755l13.045 2.759c-0.165 0.779-0.485 1.511-0.938 2.155l-10.907-7.669zM12.158 16.48c-0.21 0.994-0.216 2.020-0.016 3.016l13.073-2.622c0.157 0.781 0.152 1.585-0.012 2.364l-13.045-2.759zM12.105 19.299l0.008 0.049 13.146-2.225-0.008-0.049-13.146 2.225zM12.115 19.359c0.418 2.447 1.7 4.646 3.591 6.22l8.531-10.247c0.527 0.439 0.899 1.066 1.021 1.779l-13.142 2.248zM15.706 25.579c1.888 1.572 4.263 2.422 6.704 2.421l-0.003-13.333c0.656-0 1.305 0.228 1.83 0.665l-8.531 10.247zM22.405 28c2.729 0.001 5.367-1.063 7.33-2.991l-9.344-9.511c0.553-0.544 1.282-0.831 2.020-0.831l-0.006 13.333zM29.735 25.009c1.966-1.932 3.093-4.575 3.098-7.355l-13.333-0.024c0.001-0.82 0.334-1.585 0.891-2.132l9.344 9.511zM32.833 17.641c0-2.147-0.664-4.151-1.785-5.8l-11.026 7.497c-0.325-0.477-0.522-1.070-0.522-1.697h13.333zM25.535 22.256h2.298v-13.333h-2.298v13.333zM27.833 22.256c2.84 0 5.584-1.11 7.624-3.118l-9.355-9.501c0.477-0.469 1.101-0.715 1.731-0.715v13.333zM35.457 19.139c2.043-2.011 3.21-4.761 3.21-7.651h-13.333c0-0.714 0.289-1.377 0.769-1.849l9.355 9.501zM38.667 11.487c0-2.89-1.167-5.64-3.21-7.651l-9.355 9.501c-0.48-0.473-0.769-1.136-0.769-1.849h13.333zM35.457 3.836c-2.039-2.008-4.783-3.118-7.624-3.118v13.333c-0.63 0-1.255-0.245-1.731-0.715l9.355-9.501z"></path>
        </symbol>
        <symbol id="alcove" viewBox="0 0 46 32">
            <path
                d="M2.608 1.8h12.409c0.105 0 0.203-0.040 0.278-0.112l1.192-1.163c0.346-0.338 0.807-0.524 1.297-0.524h18.817c0.876 0 1.69 0.425 2.176 1.136l2.255 3.3c0.32 0.468 0.349 1.067 0.077 1.564s-0.8 0.805-1.377 0.805h-9.698v0.956h4.967c1.317 0 2.501 0.763 3.018 1.945l2.908 6.65 2.548 0.994c1.36 0.531 2.24 1.797 2.24 3.227v6.158c0 0.918-0.766 1.666-1.708 1.666h-2.964c-0.345 2.039-2.164 3.599-4.35 3.599s-4.005-1.561-4.35-3.599h-16.203c-0.345 2.039-2.164 3.599-4.35 3.599s-4.005-1.561-4.35-3.599h-5.921c-0.837 0-1.518-0.664-1.518-1.481v-22.576c0-1.403 1.17-2.544 2.608-2.544zM36.692 30.594c1.637 0 2.969-1.299 2.969-2.896s-1.332-2.896-2.969-2.896c-1.637 0-2.969 1.299-2.969 2.896s1.332 2.896 2.969 2.896zM30.034 26.995h2.307c0.006-0.035 0.013-0.070 0.020-0.105 0.005-0.024 0.009-0.047 0.014-0.071 0.012-0.055 0.025-0.11 0.039-0.164 0.003-0.011 0.005-0.023 0.009-0.034 0.017-0.066 0.036-0.13 0.057-0.195 0.006-0.019 0.013-0.037 0.019-0.056 0.015-0.045 0.031-0.090 0.047-0.134 0.009-0.024 0.018-0.047 0.028-0.071 0.015-0.039 0.030-0.078 0.047-0.116 0.010-0.025 0.022-0.050 0.033-0.075 0.016-0.037 0.032-0.072 0.050-0.108 0.013-0.025 0.025-0.050 0.038-0.075 0.017-0.034 0.036-0.069 0.054-0.103 0.013-0.025 0.027-0.049 0.041-0.074 0.019-0.034 0.039-0.067 0.059-0.101 0.014-0.024 0.029-0.047 0.043-0.071 0.022-0.034 0.044-0.067 0.066-0.101 0.015-0.022 0.029-0.044 0.044-0.065 0.025-0.035 0.051-0.070 0.077-0.105 0.013-0.018 0.026-0.037 0.040-0.055 0.036-0.046 0.072-0.090 0.109-0.135 0.005-0.007 0.010-0.014 0.016-0.020 0.043-0.051 0.087-0.1 0.132-0.148 0.014-0.015 0.028-0.029 0.043-0.044 0.032-0.033 0.063-0.066 0.096-0.099 0.018-0.018 0.038-0.035 0.056-0.053 0.029-0.028 0.059-0.056 0.090-0.084 0.020-0.018 0.041-0.036 0.062-0.054 0.030-0.026 0.060-0.051 0.090-0.077l0.066-0.052c0.031-0.024 0.062-0.048 0.093-0.071 0.022-0.017 0.045-0.034 0.069-0.050 0.032-0.023 0.064-0.045 0.097-0.068 0.023-0.015 0.046-0.031 0.069-0.046 0.034-0.023 0.069-0.044 0.104-0.065 0.022-0.014 0.045-0.028 0.068-0.041 0.038-0.023 0.077-0.044 0.116-0.065 0.020-0.011 0.040-0.023 0.059-0.033 0.056-0.029 0.112-0.057 0.168-0.084 0.005-0.002 0.009-0.004 0.013-0.006 0.061-0.029 0.123-0.056 0.186-0.082 0.020-0.008 0.041-0.016 0.061-0.024 0.043-0.017 0.086-0.034 0.13-0.050 0.025-0.009 0.050-0.017 0.075-0.026 0.040-0.014 0.080-0.027 0.12-0.039 0.027-0.008 0.054-0.016 0.082-0.024 0.039-0.011 0.078-0.023 0.118-0.033 0.028-0.007 0.056-0.015 0.085-0.021 0.039-0.009 0.078-0.018 0.118-0.026 0.029-0.006 0.058-0.012 0.087-0.018 0.040-0.007 0.081-0.015 0.122-0.021 0.029-0.005 0.057-0.010 0.086-0.014 0.042-0.006 0.085-0.011 0.128-0.016 0.027-0.003 0.055-0.007 0.082-0.009 0.047-0.004 0.095-0.008 0.143-0.011 0.024-0.002 0.047-0.004 0.070-0.005 0.072-0.004 0.144-0.006 0.216-0.006s0.144 0.002 0.216 0.006c0.024 0.001 0.047 0.003 0.070 0.005 0.048 0.003 0.096 0.006 0.143 0.011 0.028 0.002 0.055 0.006 0.082 0.009 0.043 0.005 0.086 0.010 0.128 0.016 0.029 0.004 0.058 0.008 0.087 0.014 0.041 0.006 0.081 0.014 0.122 0.021 0.029 0.006 0.058 0.012 0.087 0.018 0.040 0.008 0.079 0.017 0.118 0.026 0.029 0.007 0.057 0.014 0.085 0.021 0.039 0.010 0.078 0.021 0.118 0.033 0.028 0.008 0.055 0.016 0.082 0.024 0.040 0.012 0.080 0.026 0.12 0.039 0.025 0.009 0.050 0.017 0.075 0.026 0.044 0.016 0.087 0.033 0.13 0.050 0.020 0.008 0.041 0.016 0.061 0.024 0.062 0.026 0.125 0.053 0.186 0.082 0.005 0.002 0.009 0.005 0.013 0.006 0.057 0.027 0.112 0.055 0.168 0.084 0.020 0.011 0.039 0.022 0.059 0.033 0.039 0.021 0.078 0.043 0.116 0.065 0.023 0.014 0.045 0.028 0.068 0.041 0.035 0.021 0.070 0.043 0.104 0.065 0.023 0.015 0.046 0.031 0.069 0.046 0.033 0.023 0.065 0.044 0.097 0.068 0.023 0.016 0.046 0.033 0.069 0.050 0.031 0.024 0.062 0.047 0.093 0.071l0.066 0.052c0.031 0.025 0.061 0.051 0.090 0.077 0.021 0.018 0.041 0.036 0.062 0.054 0.031 0.028 0.060 0.056 0.090 0.084 0.018 0.017 0.037 0.035 0.056 0.053 0.033 0.033 0.065 0.066 0.096 0.099 0.014 0.015 0.029 0.029 0.043 0.044 0.045 0.048 0.089 0.098 0.132 0.148 0.006 0.007 0.011 0.014 0.016 0.020 0.037 0.044 0.073 0.089 0.109 0.135 0.014 0.018 0.027 0.037 0.040 0.055 0.026 0.035 0.052 0.070 0.077 0.105 0.015 0.021 0.029 0.043 0.044 0.065 0.022 0.034 0.044 0.067 0.066 0.101 0.014 0.024 0.029 0.047 0.043 0.071 0.020 0.033 0.040 0.067 0.059 0.101 0.014 0.025 0.028 0.049 0.041 0.074 0.018 0.034 0.037 0.069 0.054 0.103 0.013 0.025 0.025 0.050 0.038 0.075 0.017 0.036 0.033 0.071 0.050 0.108 0.011 0.025 0.023 0.049 0.033 0.075 0.017 0.038 0.032 0.077 0.047 0.116 0.010 0.024 0.019 0.047 0.028 0.071 0.016 0.044 0.032 0.089 0.047 0.134 0.006 0.019 0.013 0.038 0.019 0.056 0.020 0.064 0.039 0.129 0.056 0.195 0.003 0.011 0.006 0.023 0.009 0.034 0.014 0.055 0.027 0.109 0.039 0.164 0.005 0.024 0.009 0.047 0.014 0.071 0.007 0.035 0.014 0.069 0.020 0.105h2.963c0.147 0 0.266-0.116 0.266-0.26v-2.946h-1.124v-1.406h1.124v-1.806c0-0.851-0.523-1.606-1.333-1.922l-2.697-1.052h-10.209v9.392zM30.034 16.197h9.257l-2.598-5.939c-0.29-0.662-0.954-1.090-1.692-1.090h-4.967v7.030zM11.789 30.594c1.637 0 2.969-1.299 2.969-2.896s-1.332-2.896-2.969-2.896c-0.051 0-0.102 0.001-0.153 0.004-1.364 0.067-2.488 1.038-2.756 2.309-0.010 0.047-0.019 0.095-0.027 0.143-0.015 0.096-0.025 0.193-0.030 0.291-0.003 0.049-0.004 0.099-0.004 0.149 0 1.597 1.332 2.896 2.969 2.896zM1.441 22.383h1.124v1.406h-1.124v3.131c0 0.041 0.035 0.075 0.077 0.075h5.92c0.006-0.035 0.013-0.069 0.020-0.104 0.005-0.024 0.009-0.048 0.014-0.072 0.012-0.054 0.024-0.107 0.038-0.16 0.003-0.012 0.006-0.025 0.009-0.038 0.017-0.065 0.036-0.129 0.056-0.193 0.006-0.020 0.013-0.039 0.020-0.058 0.015-0.044 0.030-0.089 0.046-0.132 0.009-0.025 0.019-0.048 0.028-0.072 0.015-0.038 0.031-0.077 0.046-0.114 0.011-0.026 0.022-0.051 0.034-0.076 0.016-0.036 0.032-0.071 0.050-0.106 0.012-0.026 0.025-0.051 0.038-0.076 0.017-0.034 0.035-0.068 0.054-0.102 0.014-0.025 0.028-0.049 0.042-0.074 0.020-0.034 0.039-0.067 0.059-0.1 0.014-0.024 0.029-0.048 0.044-0.071 0.021-0.034 0.043-0.067 0.066-0.1 0.014-0.023 0.029-0.045 0.044-0.066 0.025-0.035 0.051-0.070 0.076-0.104 0.014-0.019 0.028-0.038 0.042-0.057 0.035-0.044 0.070-0.088 0.106-0.132 0.006-0.008 0.012-0.016 0.018-0.023 0.043-0.051 0.087-0.1 0.132-0.148 0.014-0.015 0.029-0.030 0.043-0.045 0.032-0.033 0.063-0.066 0.096-0.098 0.018-0.018 0.037-0.035 0.056-0.053 0.029-0.028 0.059-0.056 0.089-0.083 0.020-0.018 0.041-0.036 0.062-0.055 0.029-0.025 0.059-0.051 0.090-0.075 0.022-0.018 0.044-0.036 0.066-0.053 0.030-0.024 0.061-0.047 0.092-0.071 0.022-0.017 0.046-0.034 0.069-0.050 0.032-0.023 0.064-0.045 0.096-0.067 0.024-0.016 0.047-0.031 0.070-0.047 0.034-0.023 0.069-0.044 0.103-0.065 0.023-0.014 0.046-0.028 0.069-0.042 0.038-0.023 0.077-0.044 0.116-0.065 0.020-0.011 0.040-0.023 0.061-0.033 0.055-0.029 0.11-0.057 0.167-0.083 0.005-0.002 0.009-0.005 0.014-0.007 0.061-0.029 0.123-0.056 0.186-0.082 0.020-0.008 0.041-0.016 0.061-0.024 0.043-0.017 0.086-0.034 0.13-0.050 0.025-0.009 0.050-0.017 0.076-0.026 0.039-0.014 0.079-0.027 0.119-0.039 0.027-0.008 0.055-0.016 0.082-0.024 0.039-0.011 0.078-0.023 0.118-0.033 0.028-0.007 0.056-0.015 0.085-0.021 0.039-0.009 0.078-0.018 0.118-0.026 0.029-0.006 0.058-0.012 0.087-0.018 0.040-0.007 0.081-0.015 0.122-0.021 0.029-0.005 0.057-0.010 0.086-0.014 0.042-0.006 0.085-0.011 0.128-0.016 0.027-0.003 0.055-0.007 0.082-0.009 0.047-0.004 0.095-0.008 0.143-0.011 0.024-0.002 0.047-0.004 0.070-0.005 0.072-0.004 0.144-0.006 0.216-0.006s0.144 0.002 0.216 0.006c0.024 0.001 0.047 0.003 0.070 0.005 0.048 0.003 0.096 0.006 0.143 0.011 0.028 0.002 0.055 0.006 0.082 0.009 0.043 0.005 0.086 0.010 0.128 0.016 0.029 0.004 0.058 0.008 0.086 0.014 0.041 0.006 0.081 0.014 0.122 0.021 0.029 0.006 0.058 0.012 0.087 0.018 0.040 0.008 0.079 0.017 0.118 0.026 0.029 0.007 0.057 0.014 0.085 0.021 0.039 0.010 0.078 0.021 0.118 0.033 0.027 0.008 0.055 0.016 0.082 0.024 0.040 0.012 0.080 0.026 0.119 0.039 0.025 0.009 0.051 0.017 0.076 0.026 0.044 0.016 0.086 0.033 0.13 0.050 0.020 0.008 0.041 0.016 0.061 0.024 0.062 0.026 0.124 0.053 0.186 0.082 0.005 0.002 0.010 0.005 0.014 0.007 0.056 0.026 0.112 0.054 0.167 0.083 0.021 0.011 0.040 0.022 0.060 0.033 0.039 0.021 0.078 0.043 0.116 0.065 0.023 0.014 0.046 0.028 0.069 0.042 0.035 0.021 0.069 0.042 0.103 0.065 0.023 0.015 0.046 0.031 0.070 0.047 0.032 0.022 0.065 0.044 0.096 0.067 0.023 0.016 0.046 0.033 0.069 0.050 0.031 0.024 0.062 0.047 0.092 0.071 0.023 0.017 0.044 0.035 0.066 0.053 0.031 0.025 0.061 0.050 0.090 0.076 0.021 0.018 0.042 0.036 0.062 0.054 0.030 0.028 0.060 0.056 0.090 0.084 0.018 0.017 0.037 0.035 0.056 0.053 0.032 0.032 0.065 0.065 0.096 0.098 0.014 0.015 0.029 0.029 0.043 0.044 0.045 0.048 0.089 0.098 0.132 0.148 0.006 0.007 0.012 0.015 0.017 0.021 0.036 0.044 0.073 0.088 0.107 0.134 0.014 0.018 0.028 0.037 0.042 0.055 0.026 0.035 0.052 0.070 0.077 0.105 0.015 0.021 0.029 0.044 0.044 0.066 0.023 0.033 0.044 0.066 0.066 0.1 0.015 0.024 0.029 0.047 0.044 0.071 0.020 0.033 0.040 0.067 0.059 0.101 0.014 0.025 0.028 0.049 0.041 0.074 0.019 0.034 0.037 0.069 0.055 0.103 0.013 0.025 0.025 0.050 0.037 0.075 0.017 0.036 0.034 0.072 0.050 0.108 0.012 0.025 0.023 0.049 0.033 0.075 0.017 0.038 0.032 0.077 0.047 0.116 0.009 0.024 0.018 0.047 0.028 0.071 0.017 0.045 0.032 0.090 0.047 0.135 0.006 0.019 0.013 0.037 0.019 0.055 0.020 0.064 0.039 0.129 0.057 0.195 0.002 0.010 0.005 0.021 0.007 0.031 0.014 0.056 0.028 0.111 0.040 0.168 0.005 0.023 0.009 0.046 0.013 0.069 0.007 0.035 0.014 0.070 0.021 0.106h12.453v-20.893c0-0.388 0.323-0.703 0.721-0.703h10.419c0.018 0 0.073 0 0.107-0.062s0.004-0.106-0.006-0.12l-2.255-3.3c-0.218-0.319-0.583-0.51-0.977-0.51h-18.817c-0.105 0-0.204 0.040-0.278 0.112l-1.192 1.163c-0.346 0.338-0.807 0.524-1.297 0.524h-12.409c-0.643 0-1.167 0.511-1.167 1.138v18.039z"></path>
            <path
                d="M20.116 7.198h4.558c0.921 0 1.67 0.731 1.67 1.629v15.046c0 0.388-0.323 0.703-0.721 0.703h-6.456c-0.398 0-0.721-0.315-0.721-0.703v-15.046c-0.001-0.899 0.748-1.629 1.669-1.629zM19.887 23.17h5.015v-8.267h-5.015v8.267zM19.887 13.497h5.015v-4.669c0-0.123-0.103-0.223-0.229-0.223h-4.558c-0.126 0-0.229 0.1-0.229 0.223v4.669h0.001zM5.536 7.198h8.814c1.019 0 1.848 0.809 1.848 1.802v4.1c0 0.994-0.829 1.802-1.848 1.802h-8.815c-1.019 0-1.848-0.809-1.848-1.802v-4.1c0.001-0.994 0.83-1.802 1.848-1.802zM5.129 13.1c0 0.218 0.182 0.396 0.406 0.396h8.814c0.224 0 0.406-0.178 0.406-0.396v-4.1c0-0.218-0.182-0.396-0.406-0.396h-8.815c-0.224 0-0.406 0.178-0.406 0.396v4.1h0.001z"></path>
        </symbol>
        <symbol id="beds" viewBox="0 0 32 32">
            <path stroke-linejoin="round" stroke-linecap="round" stroke-miterlimit="4"
                stroke-width="2.24"
                d="M3 26v-7c0.003-1.060 0.426-2.076 1.175-2.825s1.765-1.172 2.825-1.175h18c1.060 0.003 2.076 0.426 2.825 1.175s1.172 1.765 1.175 2.825v7M24 15h-18v-6.5c0.002-0.662 0.266-1.297 0.734-1.766s1.103-0.732 1.766-0.734h15c0.662 0.002 1.297 0.266 1.766 0.734s0.732 1.103 0.734 1.766v6.5h-2z"></path>
            <path stroke-linejoin="round" stroke-linecap="round" stroke-miterlimit="4"
                stroke-width="2.24"
                d="M3 26v-0.5c0.001-0.397 0.16-0.778 0.441-1.059s0.662-0.44 1.059-0.441h23c0.397 0.001 0.778 0.16 1.059 0.441s0.44 0.662 0.441 1.059v0.5M7 15v-1c0.002-0.53 0.213-1.038 0.587-1.413s0.883-0.586 1.413-0.587h5c0.53 0.002 1.038 0.213 1.413 0.587s0.586 0.883 0.587 1.413M16 14v1M16 14c0.001-0.53 0.213-1.038 0.587-1.413s0.883-0.586 1.413-0.587h5c0.53 0.002 1.038 0.213 1.413 0.587s0.586 0.883 0.587 1.413v1"></path>
        </symbol>
        <symbol id="bathroom" viewBox="0 0 32 32">
            <path
                d="M26 17v3c0 1.781-0.781 3.359-2 4.469v3.031c0 0.281-0.219 0.5-0.5 0.5h-1c-0.281 0-0.5-0.219-0.5-0.5v-1.844c-0.625 0.219-1.297 0.344-2 0.344h-12c-0.703 0-1.375-0.125-2-0.344v1.719c0 0.344-0.219 0.625-0.5 0.625h-1c-0.281 0-0.5-0.281-0.5-0.625v-2.906c-1.219-1.109-2-2.688-2-4.469v-3h24zM11 10.5c0 0.281-0.219 0.5-0.5 0.5s-0.5-0.219-0.5-0.5 0.219-0.5 0.5-0.5 0.5 0.219 0.5 0.5zM12 9.5c0 0.281-0.219 0.5-0.5 0.5s-0.5-0.219-0.5-0.5 0.219-0.5 0.5-0.5 0.5 0.219 0.5 0.5zM11 8.5c0 0.281-0.219 0.5-0.5 0.5s-0.5-0.219-0.5-0.5 0.219-0.5 0.5-0.5 0.5 0.219 0.5 0.5zM13 8.5c0 0.281-0.219 0.5-0.5 0.5s-0.5-0.219-0.5-0.5 0.219-0.5 0.5-0.5 0.5 0.219 0.5 0.5zM12 7.5c0 0.281-0.219 0.5-0.5 0.5s-0.5-0.219-0.5-0.5 0.219-0.5 0.5-0.5 0.5 0.219 0.5 0.5zM11 6.5c0 0.281-0.219 0.5-0.5 0.5s-0.5-0.219-0.5-0.5 0.219-0.5 0.5-0.5 0.5 0.219 0.5 0.5zM28 14.5v1c0 0.281-0.219 0.5-0.5 0.5h-27c-0.281 0-0.5-0.219-0.5-0.5v-1c0-0.281 0.219-0.5 0.5-0.5h1.5v-10c0-2.203 1.797-4 4-4 1.125 0 2.141 0.469 2.875 1.219 0.969-0.391 2.125-0.25 2.984 0.422l0.344-0.344c0.094-0.094 0.25-0.094 0.344 0l0.656 0.656c0.094 0.094 0.094 0.25 0 0.344l-4.906 4.906c-0.094 0.094-0.25 0.094-0.344 0l-0.656-0.656c-0.094-0.094-0.094-0.25 0-0.344l0.344-0.344c-0.75-0.953-0.844-2.266-0.266-3.313-0.359-0.344-0.844-0.547-1.375-0.547-1.109 0-2 0.891-2 2v10h23.5c0.281 0 0.5 0.219 0.5 0.5zM14 7.5c0 0.281-0.219 0.5-0.5 0.5s-0.5-0.219-0.5-0.5 0.219-0.5 0.5-0.5 0.5 0.219 0.5 0.5zM13 6.5c0 0.281-0.219 0.5-0.5 0.5s-0.5-0.219-0.5-0.5 0.219-0.5 0.5-0.5 0.5 0.219 0.5 0.5zM12 5.5c0 0.281-0.219 0.5-0.5 0.5s-0.5-0.219-0.5-0.5 0.219-0.5 0.5-0.5 0.5 0.219 0.5 0.5zM15 6.5c0 0.281-0.219 0.5-0.5 0.5s-0.5-0.219-0.5-0.5 0.219-0.5 0.5-0.5 0.5 0.219 0.5 0.5zM14 5.5c0 0.281-0.219 0.5-0.5 0.5s-0.5-0.219-0.5-0.5 0.219-0.5 0.5-0.5 0.5 0.219 0.5 0.5zM13 4.5c0 0.281-0.219 0.5-0.5 0.5s-0.5-0.219-0.5-0.5 0.219-0.5 0.5-0.5 0.5 0.219 0.5 0.5zM16 5.5c0 0.281-0.219 0.5-0.5 0.5s-0.5-0.219-0.5-0.5 0.219-0.5 0.5-0.5 0.5 0.219 0.5 0.5zM15 4.5c0 0.281-0.219 0.5-0.5 0.5s-0.5-0.219-0.5-0.5 0.219-0.5 0.5-0.5 0.5 0.219 0.5 0.5zM17 4.5c0 0.281-0.219 0.5-0.5 0.5s-0.5-0.219-0.5-0.5 0.219-0.5 0.5-0.5 0.5 0.219 0.5 0.5z"></path>
        </symbol>
        <symbol id="icon-calendar" viewBox="0 0 32 32">
            <path stroke-linejoin="round" stroke-linecap="round" stroke-miterlimit="4"
                stroke-width="2.4"
                d="M25.333 5.333h-18.667c-1.473 0-2.667 1.194-2.667 2.667v18.667c0 1.473 1.194 2.667 2.667 2.667h18.667c1.473 0 2.667-1.194 2.667-2.667v-18.667c0-1.473-1.194-2.667-2.667-2.667z"></path>
            <path stroke-linejoin="round" stroke-linecap="round" stroke-miterlimit="4"
                stroke-width="2.4" d="M21.333 2.667v5.333"></path>
            <path stroke-linejoin="round" stroke-linecap="round" stroke-miterlimit="4"
                stroke-width="2.4" d="M10.667 2.667v5.333"></path>
            <path stroke-linejoin="round" stroke-linecap="round" stroke-miterlimit="4"
                stroke-width="2.4" d="M4 13.333h24"></path>
        </symbol>
        <symbol id="CD" viewBox="0 0 32 32">
            <path stroke-linejoin="miter" stroke-linecap="butt" stroke-miterlimit="4"
                stroke-width="2.4"
                d="M16 28c6.627 0 12-5.373 12-12s-5.373-12-12-12c-6.627 0-12 5.373-12 12s5.373 12 12 12z"></path>
            <path stroke-linejoin="miter" stroke-linecap="round" stroke-miterlimit="4"
                stroke-width="2.4" d="M8.667 16c0-4.050 3.283-7.333 7.333-7.333"></path>
            <path stroke-linejoin="miter" stroke-linecap="butt" stroke-miterlimit="4"
                stroke-width="2.4"
                d="M16 19.333c1.841 0 3.333-1.492 3.333-3.333s-1.492-3.333-3.333-3.333c-1.841 0-3.333 1.492-3.333 3.333s1.492 3.333 3.333 3.333z"></path>
        </symbol>
        <symbol id="close" viewBox="0 0 32 32">
            <path stroke-linejoin="round" stroke-linecap="round" stroke-miterlimit="4"
                stroke-width="3" d="M24 8l-16 16"></path>
            <path stroke-linejoin="round" stroke-linecap="round" stroke-miterlimit="4"
                stroke-width="3" d="M8 8l16 16"></path>
        </symbol>
        <symbol id="airConditioner" viewBox="0 0 32 32">
            <path stroke-linejoin="round" stroke-linecap="round" stroke-miterlimit="4"
                stroke-width="2.4"
                d="M28.571 1.143h-25.143c-0.606 0-1.188 0.241-1.616 0.669s-0.669 1.010-0.669 1.616v11.429c0 0.606 0.241 1.188 0.669 1.616s1.010 0.669 1.616 0.669h25.143c0.606 0 1.188-0.241 1.616-0.669s0.67-1.010 0.67-1.616v-11.429c0-0.606-0.241-1.188-0.67-1.616s-1.010-0.669-1.616-0.669z"></path>
            <path stroke-linejoin="round" stroke-linecap="round" stroke-miterlimit="4"
                stroke-width="2.4"
                d="M25.143 17.143v-4.571c0-0.606-0.241-1.188-0.67-1.616s-1.010-0.669-1.616-0.669h-13.714c-0.606 0-1.188 0.241-1.616 0.669s-0.669 1.010-0.669 1.616v4.571M5.714 28.572h0.229c0.849 0 1.663-0.337 2.263-0.937s0.937-1.414 0.937-2.263v-2.514M26.286 28.572h-0.229c-0.849 0-1.663-0.337-2.263-0.937s-0.937-1.414-0.937-2.263v-2.514M16 30.857v-8"></path>
        </symbol>
        <symbol id="freezer" viewBox="0 0 32 32">
            <path stroke-linejoin="round" stroke-linecap="round" stroke-miterlimit="4"
                stroke-width="2.0800"
                d="M23.4 3h-14.793c-1.105 0-2 0.895-2 2v20.387c0 1.104 0.895 2 2 2h14.793c1.104 0 2-0.896 2-2v-20.387c0-1.105-0.896-2-2-2z"></path>
            <path stroke-linejoin="round" stroke-linecap="round" stroke-miterlimit="4"
                stroke-width="2.0800"
                d="M6.607 13.127h18.787M10.313 10.567v-4.040M10.313 19.44v-4.040M8.427 27.387v0.7c0 0.241 0.095 0.472 0.265 0.643s0.4 0.268 0.642 0.27h1.647c0.242 0 0.475-0.096 0.646-0.268s0.268-0.404 0.268-0.646v-0.7M20.1 27.387v0.7c0 0.242 0.096 0.474 0.268 0.646s0.404 0.268 0.646 0.268h1.653c0.242 0 0.474-0.096 0.646-0.268s0.268-0.404 0.268-0.646v-0.7"></path>
        </symbol>
        <symbol id="fullyIntegrated" viewBox="0 0 46 32">
            <path
                d="M2.608 1.8h12.409c0.105 0 0.203-0.040 0.278-0.112l1.192-1.163c0.346-0.338 0.807-0.524 1.297-0.524h18.817c0.876 0 1.69 0.425 2.176 1.136l2.255 3.3c0.32 0.468 0.349 1.067 0.077 1.564s-0.8 0.805-1.377 0.805h-9.698v0.956h4.967c1.317 0 2.501 0.763 3.018 1.945l2.908 6.65 2.548 0.994c1.36 0.531 2.24 1.797 2.24 3.227v6.158c0 0.918-0.766 1.666-1.708 1.666h-2.964c-0.345 2.039-2.164 3.599-4.35 3.599s-4.005-1.561-4.35-3.599h-16.203c-0.345 2.039-2.164 3.599-4.35 3.599s-4.005-1.561-4.35-3.599h-5.921c-0.837 0-1.518-0.664-1.518-1.481v-22.576c0-1.403 1.17-2.544 2.608-2.544zM36.692 30.594c1.637 0 2.969-1.299 2.969-2.896s-1.332-2.896-2.969-2.896c-1.637 0-2.969 1.299-2.969 2.896s1.332 2.896 2.969 2.896zM30.034 26.995h2.307c0.006-0.035 0.013-0.070 0.020-0.105 0.005-0.024 0.009-0.047 0.014-0.071 0.012-0.055 0.025-0.11 0.039-0.164 0.003-0.011 0.005-0.023 0.009-0.034 0.017-0.066 0.036-0.13 0.057-0.195 0.006-0.019 0.013-0.037 0.019-0.056 0.015-0.045 0.031-0.090 0.047-0.134 0.009-0.024 0.018-0.047 0.028-0.071 0.015-0.039 0.030-0.078 0.047-0.116 0.010-0.025 0.022-0.050 0.033-0.075 0.016-0.037 0.032-0.072 0.050-0.108 0.013-0.025 0.025-0.050 0.038-0.075 0.017-0.034 0.036-0.069 0.054-0.103 0.013-0.025 0.027-0.049 0.041-0.074 0.019-0.034 0.039-0.067 0.059-0.101 0.014-0.024 0.029-0.047 0.043-0.071 0.022-0.034 0.044-0.067 0.066-0.101 0.015-0.022 0.029-0.044 0.044-0.065 0.025-0.035 0.051-0.070 0.077-0.105 0.013-0.018 0.026-0.037 0.040-0.055 0.036-0.046 0.072-0.090 0.109-0.135 0.005-0.007 0.010-0.014 0.016-0.020 0.043-0.051 0.087-0.1 0.132-0.148 0.014-0.015 0.028-0.029 0.043-0.044 0.032-0.033 0.063-0.066 0.096-0.099 0.018-0.018 0.038-0.035 0.056-0.053 0.029-0.028 0.059-0.056 0.090-0.084 0.020-0.018 0.041-0.036 0.062-0.054 0.030-0.026 0.060-0.051 0.090-0.077l0.066-0.052c0.031-0.024 0.062-0.048 0.093-0.071 0.022-0.017 0.045-0.034 0.069-0.050 0.032-0.023 0.064-0.045 0.097-0.068 0.023-0.015 0.046-0.031 0.069-0.046 0.034-0.023 0.069-0.044 0.104-0.065 0.022-0.014 0.045-0.028 0.068-0.041 0.038-0.023 0.077-0.044 0.116-0.065 0.020-0.011 0.040-0.023 0.059-0.033 0.056-0.029 0.112-0.057 0.168-0.084 0.005-0.002 0.009-0.004 0.013-0.006 0.061-0.029 0.123-0.056 0.186-0.082 0.020-0.008 0.041-0.016 0.061-0.024 0.043-0.017 0.086-0.034 0.13-0.050 0.025-0.009 0.050-0.017 0.075-0.026 0.040-0.014 0.080-0.027 0.12-0.039 0.027-0.008 0.054-0.016 0.082-0.024 0.039-0.011 0.078-0.023 0.118-0.033 0.028-0.007 0.056-0.015 0.085-0.021 0.039-0.009 0.078-0.018 0.118-0.026 0.029-0.006 0.058-0.012 0.087-0.018 0.040-0.007 0.081-0.015 0.122-0.021 0.029-0.005 0.057-0.010 0.086-0.014 0.042-0.006 0.085-0.011 0.128-0.016 0.027-0.003 0.055-0.007 0.082-0.009 0.047-0.004 0.095-0.008 0.143-0.011 0.024-0.002 0.047-0.004 0.070-0.005 0.072-0.004 0.144-0.006 0.216-0.006s0.144 0.002 0.216 0.006c0.024 0.001 0.047 0.003 0.070 0.005 0.048 0.003 0.096 0.006 0.143 0.011 0.028 0.002 0.055 0.006 0.082 0.009 0.043 0.005 0.086 0.010 0.128 0.016 0.029 0.004 0.058 0.008 0.087 0.014 0.041 0.006 0.081 0.014 0.122 0.021 0.029 0.006 0.058 0.012 0.087 0.018 0.040 0.008 0.079 0.017 0.118 0.026 0.029 0.007 0.057 0.014 0.085 0.021 0.039 0.010 0.078 0.021 0.118 0.033 0.028 0.008 0.055 0.016 0.082 0.024 0.040 0.012 0.080 0.026 0.12 0.039 0.025 0.009 0.050 0.017 0.075 0.026 0.044 0.016 0.087 0.033 0.13 0.050 0.020 0.008 0.041 0.016 0.061 0.024 0.062 0.026 0.125 0.053 0.186 0.082 0.005 0.002 0.009 0.005 0.013 0.006 0.057 0.027 0.112 0.055 0.168 0.084 0.020 0.011 0.039 0.022 0.059 0.033 0.039 0.021 0.078 0.043 0.116 0.065 0.023 0.014 0.045 0.028 0.068 0.041 0.035 0.021 0.070 0.043 0.104 0.065 0.023 0.015 0.046 0.031 0.069 0.046 0.033 0.023 0.065 0.044 0.097 0.068 0.023 0.016 0.046 0.033 0.069 0.050 0.031 0.024 0.062 0.047 0.093 0.071l0.066 0.052c0.031 0.025 0.061 0.051 0.090 0.077 0.021 0.018 0.041 0.036 0.062 0.054 0.031 0.028 0.060 0.056 0.090 0.084 0.018 0.017 0.037 0.035 0.056 0.053 0.033 0.033 0.065 0.066 0.096 0.099 0.014 0.015 0.029 0.029 0.043 0.044 0.045 0.048 0.089 0.098 0.132 0.148 0.006 0.007 0.011 0.014 0.016 0.020 0.037 0.044 0.073 0.089 0.109 0.135 0.014 0.018 0.027 0.037 0.040 0.055 0.026 0.035 0.052 0.070 0.077 0.105 0.015 0.021 0.029 0.043 0.044 0.065 0.022 0.034 0.044 0.067 0.066 0.101 0.014 0.024 0.029 0.047 0.043 0.071 0.020 0.033 0.040 0.067 0.059 0.101 0.014 0.025 0.028 0.049 0.041 0.074 0.018 0.034 0.037 0.069 0.054 0.103 0.013 0.025 0.025 0.050 0.038 0.075 0.017 0.036 0.033 0.071 0.050 0.108 0.011 0.025 0.023 0.049 0.033 0.075 0.017 0.038 0.032 0.077 0.047 0.116 0.010 0.024 0.019 0.047 0.028 0.071 0.016 0.044 0.032 0.089 0.047 0.134 0.006 0.019 0.013 0.038 0.019 0.056 0.020 0.064 0.039 0.129 0.056 0.195 0.003 0.011 0.006 0.023 0.009 0.034 0.014 0.055 0.027 0.109 0.039 0.164 0.005 0.024 0.009 0.047 0.014 0.071 0.007 0.035 0.014 0.069 0.020 0.105h2.963c0.147 0 0.266-0.116 0.266-0.26v-2.946h-1.124v-1.406h1.124v-1.806c0-0.851-0.523-1.606-1.333-1.922l-2.697-1.052h-10.209v9.392zM30.034 16.197h9.257l-2.598-5.939c-0.29-0.662-0.954-1.090-1.692-1.090h-4.967v7.030zM11.789 30.594c1.637 0 2.969-1.299 2.969-2.896s-1.332-2.896-2.969-2.896c-0.051 0-0.102 0.001-0.153 0.004-1.364 0.067-2.488 1.038-2.756 2.309-0.010 0.047-0.019 0.095-0.027 0.143-0.015 0.096-0.025 0.193-0.030 0.291-0.003 0.049-0.004 0.099-0.004 0.149 0 1.597 1.332 2.896 2.969 2.896zM1.441 22.383h1.124v1.406h-1.124v3.131c0 0.041 0.035 0.075 0.077 0.075h5.92c0.006-0.035 0.013-0.069 0.020-0.104 0.005-0.024 0.009-0.048 0.014-0.072 0.012-0.054 0.024-0.107 0.038-0.16 0.003-0.012 0.006-0.025 0.009-0.038 0.017-0.065 0.036-0.129 0.056-0.193 0.006-0.020 0.013-0.039 0.020-0.058 0.015-0.044 0.030-0.089 0.046-0.132 0.009-0.025 0.019-0.048 0.028-0.072 0.015-0.038 0.031-0.077 0.046-0.114 0.011-0.026 0.022-0.051 0.034-0.076 0.016-0.036 0.032-0.071 0.050-0.106 0.012-0.026 0.025-0.051 0.038-0.076 0.017-0.034 0.035-0.068 0.054-0.102 0.014-0.025 0.028-0.049 0.042-0.074 0.020-0.034 0.039-0.067 0.059-0.1 0.014-0.024 0.029-0.048 0.044-0.071 0.021-0.034 0.043-0.067 0.066-0.1 0.014-0.023 0.029-0.045 0.044-0.066 0.025-0.035 0.051-0.070 0.076-0.104 0.014-0.019 0.028-0.038 0.042-0.057 0.035-0.044 0.070-0.088 0.106-0.132 0.006-0.008 0.012-0.016 0.018-0.023 0.043-0.051 0.087-0.1 0.132-0.148 0.014-0.015 0.029-0.030 0.043-0.045 0.032-0.033 0.063-0.066 0.096-0.098 0.018-0.018 0.037-0.035 0.056-0.053 0.029-0.028 0.059-0.056 0.089-0.083 0.020-0.018 0.041-0.036 0.062-0.055 0.029-0.025 0.059-0.051 0.090-0.075 0.022-0.018 0.044-0.036 0.066-0.053 0.030-0.024 0.061-0.047 0.092-0.071 0.022-0.017 0.046-0.034 0.069-0.050 0.032-0.023 0.064-0.045 0.096-0.067 0.024-0.016 0.047-0.031 0.070-0.047 0.034-0.023 0.069-0.044 0.103-0.065 0.023-0.014 0.046-0.028 0.069-0.042 0.038-0.023 0.077-0.044 0.116-0.065 0.020-0.011 0.040-0.023 0.061-0.033 0.055-0.029 0.11-0.057 0.167-0.083 0.005-0.002 0.009-0.005 0.014-0.007 0.061-0.029 0.123-0.056 0.186-0.082 0.020-0.008 0.041-0.016 0.061-0.024 0.043-0.017 0.086-0.034 0.13-0.050 0.025-0.009 0.050-0.017 0.076-0.026 0.039-0.014 0.079-0.027 0.119-0.039 0.027-0.008 0.055-0.016 0.082-0.024 0.039-0.011 0.078-0.023 0.118-0.033 0.028-0.007 0.056-0.015 0.085-0.021 0.039-0.009 0.078-0.018 0.118-0.026 0.029-0.006 0.058-0.012 0.087-0.018 0.040-0.007 0.081-0.015 0.122-0.021 0.029-0.005 0.057-0.010 0.086-0.014 0.042-0.006 0.085-0.011 0.128-0.016 0.027-0.003 0.055-0.007 0.082-0.009 0.047-0.004 0.095-0.008 0.143-0.011 0.024-0.002 0.047-0.004 0.070-0.005 0.072-0.004 0.144-0.006 0.216-0.006s0.144 0.002 0.216 0.006c0.024 0.001 0.047 0.003 0.070 0.005 0.048 0.003 0.096 0.006 0.143 0.011 0.028 0.002 0.055 0.006 0.082 0.009 0.043 0.005 0.086 0.010 0.128 0.016 0.029 0.004 0.058 0.008 0.086 0.014 0.041 0.006 0.081 0.014 0.122 0.021 0.029 0.006 0.058 0.012 0.087 0.018 0.040 0.008 0.079 0.017 0.118 0.026 0.029 0.007 0.057 0.014 0.085 0.021 0.039 0.010 0.078 0.021 0.118 0.033 0.027 0.008 0.055 0.016 0.082 0.024 0.040 0.012 0.080 0.026 0.119 0.039 0.025 0.009 0.051 0.017 0.076 0.026 0.044 0.016 0.086 0.033 0.13 0.050 0.020 0.008 0.041 0.016 0.061 0.024 0.062 0.026 0.124 0.053 0.186 0.082 0.005 0.002 0.010 0.005 0.014 0.007 0.056 0.026 0.112 0.054 0.167 0.083 0.021 0.011 0.040 0.022 0.060 0.033 0.039 0.021 0.078 0.043 0.116 0.065 0.023 0.014 0.046 0.028 0.069 0.042 0.035 0.021 0.069 0.042 0.103 0.065 0.023 0.015 0.046 0.031 0.070 0.047 0.032 0.022 0.065 0.044 0.096 0.067 0.023 0.016 0.046 0.033 0.069 0.050 0.031 0.024 0.062 0.047 0.092 0.071 0.023 0.017 0.044 0.035 0.066 0.053 0.031 0.025 0.061 0.050 0.090 0.076 0.021 0.018 0.042 0.036 0.062 0.054 0.030 0.028 0.060 0.056 0.090 0.084 0.018 0.017 0.037 0.035 0.056 0.053 0.032 0.032 0.065 0.065 0.096 0.098 0.014 0.015 0.029 0.029 0.043 0.044 0.045 0.048 0.089 0.098 0.132 0.148 0.006 0.007 0.012 0.015 0.017 0.021 0.036 0.044 0.073 0.088 0.107 0.134 0.014 0.018 0.028 0.037 0.042 0.055 0.026 0.035 0.052 0.070 0.077 0.105 0.015 0.021 0.029 0.044 0.044 0.066 0.023 0.033 0.044 0.066 0.066 0.1 0.015 0.024 0.029 0.047 0.044 0.071 0.020 0.033 0.040 0.067 0.059 0.101 0.014 0.025 0.028 0.049 0.041 0.074 0.019 0.034 0.037 0.069 0.055 0.103 0.013 0.025 0.025 0.050 0.037 0.075 0.017 0.036 0.034 0.072 0.050 0.108 0.012 0.025 0.023 0.049 0.033 0.075 0.017 0.038 0.032 0.077 0.047 0.116 0.009 0.024 0.018 0.047 0.028 0.071 0.017 0.045 0.032 0.090 0.047 0.135 0.006 0.019 0.013 0.037 0.019 0.055 0.020 0.064 0.039 0.129 0.057 0.195 0.002 0.010 0.005 0.021 0.007 0.031 0.014 0.056 0.028 0.111 0.040 0.168 0.005 0.023 0.009 0.046 0.013 0.069 0.007 0.035 0.014 0.070 0.021 0.106h12.453v-20.893c0-0.388 0.323-0.703 0.721-0.703h10.419c0.018 0 0.073 0 0.107-0.062s0.004-0.106-0.006-0.12l-2.255-3.3c-0.218-0.319-0.583-0.51-0.977-0.51h-18.817c-0.105 0-0.204 0.040-0.278 0.112l-1.192 1.163c-0.346 0.338-0.807 0.524-1.297 0.524h-12.409c-0.643 0-1.167 0.511-1.167 1.138v18.039z"></path>
            <path
                d="M20.116 7.198h4.558c0.921 0 1.67 0.731 1.67 1.629v15.046c0 0.388-0.323 0.703-0.721 0.703h-6.456c-0.398 0-0.721-0.315-0.721-0.703v-15.046c-0.001-0.899 0.748-1.629 1.669-1.629zM19.887 23.17h5.015v-8.267h-5.015v8.267zM19.887 13.497h5.015v-4.669c0-0.123-0.103-0.223-0.229-0.223h-4.558c-0.126 0-0.229 0.1-0.229 0.223l0.001 4.669z"></path>
        </symbol>
        <symbol id="gas" viewBox="0 0 32 32">
            <path
                d="M25.072 13.991c-0.368-0.453-0.816-0.846-1.232-1.239-1.072-0.907-2.288-1.556-3.311-2.508-2.384-2.206-2.912-5.848-1.392-8.644-1.52 0.348-2.848 1.133-3.983 1.995-4.143 3.143-5.775 8.689-3.823 13.449 0.064 0.151 0.128 0.302 0.128 0.499 0 0.332-0.24 0.635-0.56 0.756-0.368 0.151-0.752 0.060-1.056-0.181-0.091-0.071-0.167-0.159-0.224-0.257-1.808-2.161-2.096-5.259-0.88-7.737-2.672 2.055-4.127 5.531-3.919 8.81 0.096 0.756 0.192 1.511 0.464 2.267 0.224 0.907 0.656 1.813 1.136 2.614 1.728 2.614 4.719 4.488 7.935 4.866 3.423 0.408 7.087-0.181 9.71-2.418 2.927-2.508 3.951-6.528 2.448-9.974l-0.208-0.393c-0.336-0.695-1.232-1.904-1.232-1.904zM20.017 23.512c-0.448 0.363-1.184 0.756-1.76 0.907-1.792 0.604-3.583-0.242-4.639-1.239 1.904-0.423 3.039-1.753 3.375-3.098 0.272-1.209-0.24-2.206-0.448-3.37-0.192-1.118-0.16-2.070 0.272-3.113 0.304 0.574 0.624 1.148 1.008 1.602 1.232 1.511 3.167 2.176 3.583 4.231 0.064 0.212 0.096 0.423 0.096 0.65 0.048 1.239-0.528 2.599-1.488 3.43z"></path>
        </symbol>
        <symbol id="heart" viewBox="0 0 32 32">
            <path stroke-linejoin="round" stroke-linecap="round" stroke-miterlimit="4"
                stroke-width="3.0667"
                d="M27.787 6.147c-0.681-0.681-1.49-1.222-2.379-1.591s-1.844-0.559-2.807-0.559-1.917 0.19-2.807 0.559c-0.89 0.369-1.699 0.909-2.38 1.591l-1.413 1.413-1.413-1.413c-1.376-1.376-3.241-2.148-5.187-2.148s-3.811 0.773-5.187 2.148c-1.376 1.376-2.148 3.241-2.148 5.187s0.773 3.811 2.148 5.187l11.787 11.787 11.787-11.787c0.681-0.681 1.222-1.49 1.591-2.38s0.559-1.844 0.559-2.807-0.19-1.917-0.559-2.807c-0.369-0.89-0.909-1.699-1.591-2.38z"></path>
        </symbol>
        <symbol id="hob" viewBox="0 0 32 32">
            <path fill="none" stroke="#101828" style="stroke: var(--color1, #101828)"
                stroke-linejoin="miter" stroke-linecap="butt" stroke-miterlimit="4"
                stroke-width="2.4"
                d="M12 6.667h16c0.354 0 0.693 0.14 0.943 0.391s0.391 0.589 0.391 0.943v17.333c0 0.354-0.14 0.693-0.391 0.943s-0.589 0.391-0.943 0.391h-16M12 6.667h-8c-0.354 0-0.693 0.14-0.943 0.391s-0.39 0.589-0.39 0.943v17.333c0 0.354 0.14 0.693 0.39 0.943s0.589 0.391 0.943 0.391h8M12 6.667v20"></path>
            <path fill="none" stroke="#101828" style="stroke: var(--color1, #101828)"
                stroke-linejoin="round" stroke-linecap="round" stroke-miterlimit="4"
                stroke-width="2.4" d="M7.333 11.333v2.667M24.667 10.667l-8 11.333"></path>
            <path
                d="M8.667 18c0-0.736-0.597-1.333-1.333-1.333s-1.333 0.597-1.333 1.333c0 0.736 0.597 1.333 1.333 1.333s1.333-0.597 1.333-1.333z"></path>
            <path
                d="M8.667 22c0-0.736-0.597-1.333-1.333-1.333s-1.333 0.597-1.333 1.333c0 0.736 0.597 1.333 1.333 1.333s1.333-0.597 1.333-1.333z"></path>
        </symbol>
        <symbol id="kitchen" viewBox="0 0 32 32">
            <path stroke-linejoin="round" stroke-linecap="round" stroke-miterlimit="4"
                stroke-width="2.4"
                d="M25.333 20v-16c-6.421 6.125-6.697 11.092-6.667 16h6.667zM25.333 20v8h-1.333v-4M10.667 5.333v22.667M6.667 5.333v4c0 1.061 0.421 2.078 1.172 2.828s1.768 1.172 2.828 1.172c1.061 0 2.078-0.421 2.828-1.172s1.172-1.768 1.172-2.828v-4"></path>
        </symbol>
        <symbol id="location" viewBox="0 0 32 32">
            <path stroke-linejoin="round" stroke-linecap="round" stroke-miterlimit="4"
                stroke-width="1.7143"
                d="M23.429 9.524c0 6.667-8.571 12.381-8.571 12.381s-8.571-5.714-8.571-12.381c0-2.273 0.903-4.453 2.511-6.061s3.788-2.51 6.061-2.51c2.273 0 4.454 0.903 6.061 2.51s2.511 3.788 2.511 6.061z"></path>
            <path stroke-linejoin="round" stroke-linecap="round" stroke-miterlimit="4"
                stroke-width="1.7143"
                d="M14.857 12.381c1.578 0 2.857-1.279 2.857-2.857s-1.279-2.857-2.857-2.857c-1.578 0-2.857 1.279-2.857 2.857s1.279 2.857 2.857 2.857z"></path>
        </symbol>
        <symbol id="microwave" viewBox="0 0 32 32">
            <path stroke-linejoin="round" stroke-linecap="round" stroke-miterlimit="4"
                stroke-width="2.24"
                d="M29.714 5.714h-27.429c-0.303 0-0.594 0.12-0.808 0.335s-0.335 0.505-0.335 0.808v18.286c0 0.303 0.12 0.594 0.335 0.808s0.505 0.335 0.808 0.335h27.429c0.303 0 0.594-0.12 0.808-0.335s0.335-0.505 0.335-0.808v-18.286c0-0.303-0.12-0.594-0.335-0.808s-0.505-0.335-0.808-0.335z"></path>
            <path stroke-linejoin="round" stroke-linecap="round" stroke-miterlimit="4"
                stroke-width="2.24"
                d="M25.143 11.428h1.143M25.143 16h1.143M19.428 10.286h-12.571c-0.303 0-0.594 0.12-0.808 0.335s-0.335 0.505-0.335 0.808v9.143c0 0.303 0.12 0.594 0.335 0.808s0.505 0.335 0.808 0.335h12.571c0.303 0 0.594-0.12 0.808-0.335s0.335-0.505 0.335-0.808v-9.143c0-0.303-0.12-0.594-0.335-0.808s-0.505-0.335-0.808-0.335z"></path>
        </symbol>
        <symbol id="petrol" viewBox="0 0 32 32">
            <path
                d="M26.36 9.64l0.013-0.013-4.96-4.96-1.413 1.413 2.813 2.813c-1.253 0.48-2.147 1.68-2.147 3.107 0 0.438 0.086 0.871 0.254 1.276s0.413 0.772 0.723 1.081c0.625 0.625 1.473 0.976 2.357 0.976 0.48 0 0.92-0.107 1.333-0.28v9.613c0 0.354-0.14 0.693-0.391 0.943s-0.589 0.391-0.943 0.391c-0.354 0-0.693-0.14-0.943-0.391s-0.391-0.589-0.391-0.943v-6c0-0.707-0.281-1.386-0.781-1.886s-1.178-0.781-1.886-0.781h-1.333v-9.333c0-0.707-0.281-1.386-0.781-1.886s-1.178-0.781-1.886-0.781h-8c-0.707 0-1.386 0.281-1.886 0.781s-0.781 1.178-0.781 1.886v21.333h13.333v-10h2v6.667c0 0.884 0.351 1.732 0.976 2.357s1.473 0.976 2.357 0.976c0.438 0 0.871-0.086 1.276-0.254s0.772-0.413 1.081-0.723c0.309-0.309 0.555-0.677 0.723-1.081s0.254-0.838 0.254-1.276v-12.667c0-0.92-0.373-1.76-0.973-2.36zM16 18v7.333h-8v-9.333h8v2zM16 13.333h-8v-6.667h8v6.667zM24 13.333c-0.354 0-0.693-0.14-0.943-0.39s-0.391-0.589-0.391-0.943 0.14-0.693 0.391-0.943c0.25-0.25 0.589-0.39 0.943-0.39s0.693 0.14 0.943 0.39c0.25 0.25 0.391 0.589 0.391 0.943s-0.14 0.693-0.391 0.943c-0.25 0.25-0.589 0.39-0.943 0.39z"></path>
        </symbol>
        <symbol id="radio" viewBox="0 0 32 32">
            <path stroke-linejoin="miter" stroke-linecap="butt" stroke-miterlimit="4"
                stroke-width="2.0800"
                d="M2.667 18.667c0-5.028 0-7.543 1.563-9.104 1.561-1.563 4.076-1.563 9.104-1.563h5.333c5.028 0 7.543 0 9.104 1.563 1.563 1.561 1.563 4.076 1.563 9.104s0 7.543-1.563 9.104c-1.561 1.563-4.076 1.563-9.104 1.563h-5.333c-5.028 0-7.543 0-9.104-1.563-1.563-1.561-1.563-4.076-1.563-9.104z"></path>
            <path stroke-linejoin="miter" stroke-linecap="butt" stroke-miterlimit="4"
                stroke-width="2.0800"
                d="M6.667 14.667c0-0.707 0.281-1.386 0.781-1.886s1.178-0.781 1.886-0.781h13.333c0.707 0 1.386 0.281 1.886 0.781s0.781 1.178 0.781 1.886-0.281 1.386-0.781 1.886c-0.5 0.5-1.178 0.781-1.886 0.781h-13.333c-0.707 0-1.386-0.281-1.886-0.781s-0.781-1.178-0.781-1.886zM12 22.667c0 0.53-0.211 1.039-0.586 1.414s-0.884 0.586-1.414 0.586-1.039-0.211-1.414-0.586c-0.375-0.375-0.586-0.884-0.586-1.414s0.211-1.039 0.586-1.414 0.884-0.586 1.414-0.586c0.53 0 1.039 0.211 1.414 0.586s0.586 0.884 0.586 1.414z"></path>
            <path stroke-linejoin="miter" stroke-linecap="round" stroke-miterlimit="4"
                stroke-width="2.0800" d="M20 15.333v2M17.333 22.667h6.667M8.667 8l11.333-5.333"></path>
        </symbol>
        <symbol id="scrollup" viewBox="0 0 34 34">
            <path
                d="M0 16c0 8.837 7.163 16 16 16s16-7.163 16-16-7.163-16-16-16-16 7.163-16 16zM29 16c0 7.18-5.82 13-13 13s-13-5.82-13-13 5.82-13 13-13 13 5.82 13 13z"></path>
            <path d="M22.086 20.914l2.829-2.829-8.914-8.914-8.914 8.914 2.828 2.828 6.086-6.086z"></path>
        </symbol>
        <symbol id="shower" viewBox="0 0 32 32">
            <path stroke-linejoin="round" stroke-linecap="round" stroke-miterlimit="4"
                stroke-width="2"
                d="M5.333 5.333l3.333 3.333M18 8.667c-1.242-1.217-2.914-1.895-4.653-1.886s-3.404 0.703-4.634 1.933-1.924 2.895-1.933 4.634c-0.009 1.739 0.669 3.411 1.886 4.653M20 6.667l-13.333 13.333M18.667 22.667v0.013M13.333 21.333v0.013M17.333 17.333v0.013M21.333 13.333v0.013M14.667 26.667v0.013M22.667 18.667v0.013M26.667 14.667v0.013"></path>
        </symbol>
        <symbol id="star" viewBox="0 0 32 32">
            <path stroke-linejoin="miter" stroke-linecap="butt" stroke-miterlimit="4"
                stroke-width="2.4"
                d="M12.4 9.394l3.6-6.822 3.6 6.822c0.318 0.603 0.899 1.025 1.571 1.141l7.601 1.315-5.376 5.532c-0.475 0.489-0.697 1.171-0.6 1.846l1.098 7.635-6.922-3.404c-0.612-0.301-1.329-0.301-1.941 0l-6.922 3.404 1.098-7.635c0.097-0.675-0.125-1.357-0.6-1.846l-5.376-5.532 7.601-1.315c0.672-0.116 1.252-0.538 1.571-1.141zM29.035 11.579v0zM7.767 27.031c0 0 0 0 0 0h-0z"></path>
        </symbol>
        <symbol id="toilet" viewBox="0 0 32 32">
            <path
                d="M24 4c1.939 0 3.269 1.647 4.040 3.313 0.761 1.653 1.224 3.811 1.287 6.145l0.007 0.541v12.667c0 0.18-0.036 0.357-0.106 0.523s-0.173 0.315-0.303 0.439c-0.13 0.125-0.283 0.222-0.451 0.285s-0.347 0.093-0.527 0.086l-0.165-0.019-3.781-0.629-3.781 0.629c-0.16 0.027-0.324 0.024-0.483-0.008l-0.157-0.041-3.579-1.193-3.579 1.193c-0.188 0.063-0.387 0.083-0.583 0.059s-0.385-0.092-0.552-0.197-0.309-0.248-0.414-0.415c-0.105-0.167-0.172-0.356-0.196-0.553l-0.009-0.159v-3.903c-0.708 0.733-1.595 1.236-2.667 1.236-1.939 0-3.269-1.647-4.040-3.313-0.819-1.78-1.293-4.145-1.293-6.687s0.473-4.907 1.293-6.687c0.735-1.592 1.981-3.164 3.78-3.303l0.26-0.011h16zM24 6.667h-12.291c0.12 0.213 0.229 0.429 0.329 0.647 0.821 1.78 1.295 4.145 1.295 6.687v10.817l2.245-0.749c0.274-0.091 0.569-0.091 0.843 0l3.687 1.229 3.673-0.613c0.144-0.024 0.293-0.024 0.437 0l2.448 0.409v-11.093c0-2.245-0.423-4.213-1.049-5.569-0.677-1.471-1.347-1.764-1.617-1.764zM8 6.667c-0.271 0-0.94 0.293-1.617 1.764-0.627 1.356-1.049 3.324-1.049 5.569s0.423 4.213 1.049 5.569c0.677 1.471 1.347 1.764 1.617 1.764s0.94-0.293 1.617-1.764c0.627-1.356 1.049-3.324 1.049-5.569s-0.423-4.213-1.049-5.569c-0.677-1.471-1.347-1.764-1.617-1.764zM8 11.333c0.736 0 1.333 1.193 1.333 2.667s-0.597 2.667-1.333 2.667c-0.736 0-1.333-1.193-1.333-2.667s0.597-2.667 1.333-2.667z"></path>
        </symbol>
        <symbol id="transmission" viewBox="0 0 32 32">
            <path stroke-linejoin="round" stroke-linecap="round" stroke-miterlimit="4"
                stroke-width="2.4"
                d="M22.667 14.667h2c0.53 0 1.039-0.211 1.414-0.586s0.586-0.884 0.586-1.414-0.211-1.039-0.586-1.414c-0.375-0.375-0.884-0.586-1.414-0.586h-2v6.667M22.667 22.667v5.333h1.333c0.707 0 1.386-0.281 1.886-0.781s0.781-1.178 0.781-1.886c0-0.707-0.281-1.385-0.781-1.886s-1.178-0.781-1.886-0.781h-1.333zM4 6.667c0 0.707 0.281 1.386 0.781 1.886s1.178 0.781 1.886 0.781c0.707 0 1.386-0.281 1.886-0.781s0.781-1.178 0.781-1.886c0-0.707-0.281-1.386-0.781-1.886s-1.178-0.781-1.886-0.781c-0.707 0-1.386 0.281-1.886 0.781s-0.781 1.178-0.781 1.886z"></path>
            <path stroke-linejoin="round" stroke-linecap="round" stroke-miterlimit="4"
                stroke-width="2.4"
                d="M6.667 9.333v4c0 0.354 0.14 0.693 0.391 0.943s0.589 0.391 0.943 0.391h4M12 14.667v9.333c0 0.354 0.14 0.693 0.391 0.943s0.589 0.39 0.943 0.39h4M12 14.667h5.333"></path>
        </symbol>
        <symbol id="TV" viewBox="0 0 32 32">
            <path stroke-linejoin="round" stroke-linecap="round" stroke-miterlimit="4"
                stroke-width="1.8"
                d="M24 26h-16c-2.216 0-4-1.784-4-4v-10c0-2.216 1.784-4 4-4h16c2.216 0 4 1.784 4 4v10c0 2.216-1.784 4-4 4z"></path>
            <path stroke-linejoin="round" stroke-linecap="round" stroke-miterlimit="4"
                stroke-width="1.8" d="M12 30h8"></path>
            <path stroke-linejoin="round" stroke-linecap="round" stroke-miterlimit="4"
                stroke-width="1.8" d="M16 8l6-6"></path>
            <path stroke-linejoin="round" stroke-linecap="round" stroke-miterlimit="4"
                stroke-width="1.8" d="M16 8l-6-6"></path>
        </symbol>
        <symbol id="panelTruck" viewBox="0 0 46 32">
            <path
                d="M2.608 1.8h12.409c0.105 0 0.203-0.040 0.278-0.112l1.192-1.163c0.346-0.338 0.807-0.524 1.297-0.524h18.817c0.876 0 1.69 0.425 2.176 1.136l2.255 3.3c0.32 0.468 0.349 1.067 0.077 1.564s-0.8 0.805-1.377 0.805h-9.698v0.956h4.967c1.317 0 2.501 0.763 3.018 1.945l2.908 6.65 2.548 0.994c1.36 0.531 2.24 1.797 2.24 3.227v6.158c0 0.918-0.766 1.666-1.708 1.666h-2.964c-0.345 2.039-2.164 3.599-4.35 3.599s-4.005-1.561-4.35-3.599h-16.203c-0.345 2.039-2.164 3.599-4.35 3.599s-4.005-1.561-4.35-3.599h-5.921c-0.837 0-1.518-0.664-1.518-1.481v-22.576c0-1.403 1.17-2.544 2.608-2.544zM36.692 30.594c1.637 0 2.969-1.299 2.969-2.896s-1.332-2.896-2.969-2.896c-1.637 0-2.969 1.299-2.969 2.896s1.332 2.896 2.969 2.896zM30.034 26.995h2.307c0.006-0.035 0.013-0.070 0.020-0.105 0.005-0.024 0.009-0.047 0.014-0.071 0.012-0.055 0.025-0.11 0.039-0.164 0.003-0.011 0.005-0.023 0.009-0.034 0.017-0.066 0.036-0.13 0.057-0.195 0.006-0.019 0.013-0.037 0.019-0.056 0.015-0.045 0.031-0.090 0.047-0.134 0.009-0.024 0.018-0.047 0.028-0.071 0.015-0.039 0.030-0.078 0.047-0.116 0.010-0.025 0.022-0.050 0.033-0.075 0.016-0.037 0.032-0.072 0.050-0.108 0.013-0.025 0.025-0.050 0.038-0.075 0.017-0.034 0.036-0.069 0.054-0.103 0.013-0.025 0.027-0.049 0.041-0.074 0.019-0.034 0.039-0.067 0.059-0.101 0.014-0.024 0.029-0.047 0.043-0.071 0.022-0.034 0.044-0.067 0.066-0.101 0.015-0.022 0.029-0.044 0.044-0.065 0.025-0.035 0.051-0.070 0.077-0.105 0.013-0.018 0.026-0.037 0.040-0.055 0.036-0.046 0.072-0.090 0.109-0.135 0.005-0.007 0.010-0.014 0.016-0.020 0.043-0.051 0.087-0.1 0.132-0.148 0.014-0.015 0.028-0.029 0.043-0.044 0.032-0.033 0.063-0.066 0.096-0.099 0.018-0.018 0.038-0.035 0.056-0.053 0.029-0.028 0.059-0.056 0.090-0.084 0.020-0.018 0.041-0.036 0.062-0.054 0.030-0.026 0.060-0.051 0.090-0.077l0.066-0.052c0.031-0.024 0.062-0.048 0.093-0.071 0.022-0.017 0.045-0.034 0.069-0.050 0.032-0.023 0.064-0.045 0.097-0.068 0.023-0.015 0.046-0.031 0.069-0.046 0.034-0.023 0.069-0.044 0.104-0.065 0.022-0.014 0.045-0.028 0.068-0.041 0.038-0.023 0.077-0.044 0.116-0.065 0.020-0.011 0.040-0.023 0.059-0.033 0.056-0.029 0.112-0.057 0.168-0.084 0.005-0.002 0.009-0.004 0.013-0.006 0.061-0.029 0.123-0.056 0.186-0.082 0.020-0.008 0.041-0.016 0.061-0.024 0.043-0.017 0.086-0.034 0.13-0.050 0.025-0.009 0.050-0.017 0.075-0.026 0.040-0.014 0.080-0.027 0.12-0.039 0.027-0.008 0.054-0.016 0.082-0.024 0.039-0.011 0.078-0.023 0.118-0.033 0.028-0.007 0.056-0.015 0.085-0.021 0.039-0.009 0.078-0.018 0.118-0.026 0.029-0.006 0.058-0.012 0.087-0.018 0.040-0.007 0.081-0.015 0.122-0.021 0.029-0.005 0.057-0.010 0.086-0.014 0.042-0.006 0.085-0.011 0.128-0.016 0.027-0.003 0.055-0.007 0.082-0.009 0.047-0.004 0.095-0.008 0.143-0.011 0.024-0.002 0.047-0.004 0.070-0.005 0.072-0.004 0.144-0.006 0.216-0.006s0.144 0.002 0.216 0.006c0.024 0.001 0.047 0.003 0.070 0.005 0.048 0.003 0.096 0.006 0.143 0.011 0.028 0.002 0.055 0.006 0.082 0.009 0.043 0.005 0.086 0.010 0.128 0.016 0.029 0.004 0.058 0.008 0.087 0.014 0.041 0.006 0.081 0.014 0.122 0.021 0.029 0.006 0.058 0.012 0.087 0.018 0.040 0.008 0.079 0.017 0.118 0.026 0.029 0.007 0.057 0.014 0.085 0.021 0.039 0.010 0.078 0.021 0.118 0.033 0.028 0.008 0.055 0.016 0.082 0.024 0.040 0.012 0.080 0.026 0.12 0.039 0.025 0.009 0.050 0.017 0.075 0.026 0.044 0.016 0.087 0.033 0.13 0.050 0.020 0.008 0.041 0.016 0.061 0.024 0.062 0.026 0.125 0.053 0.186 0.082 0.005 0.002 0.009 0.005 0.013 0.006 0.057 0.027 0.112 0.055 0.168 0.084 0.020 0.011 0.039 0.022 0.059 0.033 0.039 0.021 0.078 0.043 0.116 0.065 0.023 0.014 0.045 0.028 0.068 0.041 0.035 0.021 0.070 0.043 0.104 0.065 0.023 0.015 0.046 0.031 0.069 0.046 0.033 0.023 0.065 0.044 0.097 0.068 0.023 0.016 0.046 0.033 0.069 0.050 0.031 0.024 0.062 0.047 0.093 0.071l0.066 0.052c0.031 0.025 0.061 0.051 0.090 0.077 0.021 0.018 0.041 0.036 0.062 0.054 0.031 0.028 0.060 0.056 0.090 0.084 0.018 0.017 0.037 0.035 0.056 0.053 0.033 0.033 0.065 0.066 0.096 0.099 0.014 0.015 0.029 0.029 0.043 0.044 0.045 0.048 0.089 0.098 0.132 0.148 0.006 0.007 0.011 0.014 0.016 0.020 0.037 0.044 0.073 0.089 0.109 0.135 0.014 0.018 0.027 0.037 0.040 0.055 0.026 0.035 0.052 0.070 0.077 0.105 0.015 0.021 0.029 0.043 0.044 0.065 0.022 0.034 0.044 0.067 0.066 0.101 0.014 0.024 0.029 0.047 0.043 0.071 0.020 0.033 0.040 0.067 0.059 0.101 0.014 0.025 0.028 0.049 0.041 0.074 0.018 0.034 0.037 0.069 0.054 0.103 0.013 0.025 0.025 0.050 0.038 0.075 0.017 0.036 0.033 0.071 0.050 0.108 0.011 0.025 0.023 0.049 0.033 0.075 0.017 0.038 0.032 0.077 0.047 0.116 0.010 0.024 0.019 0.047 0.028 0.071 0.016 0.044 0.032 0.089 0.047 0.134 0.006 0.019 0.013 0.038 0.019 0.056 0.020 0.064 0.039 0.129 0.056 0.195 0.003 0.011 0.006 0.023 0.009 0.034 0.014 0.055 0.027 0.109 0.039 0.164 0.005 0.024 0.009 0.047 0.014 0.071 0.007 0.035 0.014 0.069 0.020 0.105h2.963c0.147 0 0.266-0.116 0.266-0.26v-2.946h-1.124v-1.406h1.124v-1.806c0-0.851-0.523-1.606-1.333-1.922l-2.697-1.052h-10.209v9.392zM30.034 16.197h9.257l-2.598-5.939c-0.29-0.662-0.954-1.090-1.692-1.090h-4.967v7.030zM11.789 30.594c1.637 0 2.969-1.299 2.969-2.896s-1.332-2.896-2.969-2.896c-0.051 0-0.102 0.001-0.153 0.004-1.364 0.067-2.488 1.038-2.756 2.309-0.010 0.047-0.019 0.095-0.027 0.143-0.015 0.096-0.025 0.193-0.030 0.291-0.003 0.049-0.004 0.099-0.004 0.149 0 1.597 1.332 2.896 2.969 2.896zM1.441 22.383h1.124v1.406h-1.124v3.131c0 0.041 0.035 0.075 0.077 0.075h5.92c0.006-0.035 0.013-0.069 0.020-0.104 0.005-0.024 0.009-0.048 0.014-0.072 0.012-0.054 0.024-0.107 0.038-0.16 0.003-0.012 0.006-0.025 0.009-0.038 0.017-0.065 0.036-0.129 0.056-0.193 0.006-0.020 0.013-0.039 0.020-0.058 0.015-0.044 0.030-0.089 0.046-0.132 0.009-0.025 0.019-0.048 0.028-0.072 0.015-0.038 0.031-0.077 0.046-0.114 0.011-0.026 0.022-0.051 0.034-0.076 0.016-0.036 0.032-0.071 0.050-0.106 0.012-0.026 0.025-0.051 0.038-0.076 0.017-0.034 0.035-0.068 0.054-0.102 0.014-0.025 0.028-0.049 0.042-0.074 0.020-0.034 0.039-0.067 0.059-0.1 0.014-0.024 0.029-0.048 0.044-0.071 0.021-0.034 0.043-0.067 0.066-0.1 0.014-0.023 0.029-0.045 0.044-0.066 0.025-0.035 0.051-0.070 0.076-0.104 0.014-0.019 0.028-0.038 0.042-0.057 0.035-0.044 0.070-0.088 0.106-0.132 0.006-0.008 0.012-0.016 0.018-0.023 0.043-0.051 0.087-0.1 0.132-0.148 0.014-0.015 0.029-0.030 0.043-0.045 0.032-0.033 0.063-0.066 0.096-0.098 0.018-0.018 0.037-0.035 0.056-0.053 0.029-0.028 0.059-0.056 0.089-0.083 0.020-0.018 0.041-0.036 0.062-0.055 0.029-0.025 0.059-0.051 0.090-0.075 0.022-0.018 0.044-0.036 0.066-0.053 0.030-0.024 0.061-0.047 0.092-0.071 0.022-0.017 0.046-0.034 0.069-0.050 0.032-0.023 0.064-0.045 0.096-0.067 0.024-0.016 0.047-0.031 0.070-0.047 0.034-0.023 0.069-0.044 0.103-0.065 0.023-0.014 0.046-0.028 0.069-0.042 0.038-0.023 0.077-0.044 0.116-0.065 0.020-0.011 0.040-0.023 0.061-0.033 0.055-0.029 0.11-0.057 0.167-0.083 0.005-0.002 0.009-0.005 0.014-0.007 0.061-0.029 0.123-0.056 0.186-0.082 0.020-0.008 0.041-0.016 0.061-0.024 0.043-0.017 0.086-0.034 0.13-0.050 0.025-0.009 0.050-0.017 0.076-0.026 0.039-0.014 0.079-0.027 0.119-0.039 0.027-0.008 0.055-0.016 0.082-0.024 0.039-0.011 0.078-0.023 0.118-0.033 0.028-0.007 0.056-0.015 0.085-0.021 0.039-0.009 0.078-0.018 0.118-0.026 0.029-0.006 0.058-0.012 0.087-0.018 0.040-0.007 0.081-0.015 0.122-0.021 0.029-0.005 0.057-0.010 0.086-0.014 0.042-0.006 0.085-0.011 0.128-0.016 0.027-0.003 0.055-0.007 0.082-0.009 0.047-0.004 0.095-0.008 0.143-0.011 0.024-0.002 0.047-0.004 0.070-0.005 0.072-0.004 0.144-0.006 0.216-0.006s0.144 0.002 0.216 0.006c0.024 0.001 0.047 0.003 0.070 0.005 0.048 0.003 0.096 0.006 0.143 0.011 0.028 0.002 0.055 0.006 0.082 0.009 0.043 0.005 0.086 0.010 0.128 0.016 0.029 0.004 0.058 0.008 0.086 0.014 0.041 0.006 0.081 0.014 0.122 0.021 0.029 0.006 0.058 0.012 0.087 0.018 0.040 0.008 0.079 0.017 0.118 0.026 0.029 0.007 0.057 0.014 0.085 0.021 0.039 0.010 0.078 0.021 0.118 0.033 0.027 0.008 0.055 0.016 0.082 0.024 0.040 0.012 0.080 0.026 0.119 0.039 0.025 0.009 0.051 0.017 0.076 0.026 0.044 0.016 0.086 0.033 0.13 0.050 0.020 0.008 0.041 0.016 0.061 0.024 0.062 0.026 0.124 0.053 0.186 0.082 0.005 0.002 0.010 0.005 0.014 0.007 0.056 0.026 0.112 0.054 0.167 0.083 0.021 0.011 0.040 0.022 0.060 0.033 0.039 0.021 0.078 0.043 0.116 0.065 0.023 0.014 0.046 0.028 0.069 0.042 0.035 0.021 0.069 0.042 0.103 0.065 0.023 0.015 0.046 0.031 0.070 0.047 0.032 0.022 0.065 0.044 0.096 0.067 0.023 0.016 0.046 0.033 0.069 0.050 0.031 0.024 0.062 0.047 0.092 0.071 0.023 0.017 0.044 0.035 0.066 0.053 0.031 0.025 0.061 0.050 0.090 0.076 0.021 0.018 0.042 0.036 0.062 0.054 0.030 0.028 0.060 0.056 0.090 0.084 0.018 0.017 0.037 0.035 0.056 0.053 0.032 0.032 0.065 0.065 0.096 0.098 0.014 0.015 0.029 0.029 0.043 0.044 0.045 0.048 0.089 0.098 0.132 0.148 0.006 0.007 0.012 0.015 0.017 0.021 0.036 0.044 0.073 0.088 0.107 0.134 0.014 0.018 0.028 0.037 0.042 0.055 0.026 0.035 0.052 0.070 0.077 0.105 0.015 0.021 0.029 0.044 0.044 0.066 0.023 0.033 0.044 0.066 0.066 0.1 0.015 0.024 0.029 0.047 0.044 0.071 0.020 0.033 0.040 0.067 0.059 0.101 0.014 0.025 0.028 0.049 0.041 0.074 0.019 0.034 0.037 0.069 0.055 0.103 0.013 0.025 0.025 0.050 0.037 0.075 0.017 0.036 0.034 0.072 0.050 0.108 0.012 0.025 0.023 0.049 0.033 0.075 0.017 0.038 0.032 0.077 0.047 0.116 0.009 0.024 0.018 0.047 0.028 0.071 0.017 0.045 0.032 0.090 0.047 0.135 0.006 0.019 0.013 0.037 0.019 0.055 0.020 0.064 0.039 0.129 0.057 0.195 0.002 0.010 0.005 0.021 0.007 0.031 0.014 0.056 0.028 0.111 0.040 0.168 0.005 0.023 0.009 0.046 0.013 0.069 0.007 0.035 0.014 0.070 0.021 0.106h12.453v-20.893c0-0.388 0.323-0.703 0.721-0.703h10.419c0.018 0 0.073 0 0.107-0.062s0.004-0.106-0.006-0.12l-2.255-3.3c-0.218-0.319-0.583-0.51-0.977-0.51h-18.817c-0.105 0-0.204 0.040-0.278 0.112l-1.192 1.163c-0.346 0.338-0.807 0.524-1.297 0.524h-12.409c-0.643 0-1.167 0.511-1.167 1.138v18.039z"></path>
            <path
                d="M5.536 7.198h8.814c1.019 0 1.848 0.809 1.848 1.802v4.1c0 0.994-0.829 1.802-1.848 1.802h-8.815c-1.019 0-1.848-0.809-1.848-1.802v-4.1c0.001-0.994 0.83-1.802 1.848-1.802zM5.129 13.1c0 0.218 0.182 0.396 0.406 0.396h8.814c0.224 0 0.406-0.178 0.406-0.396v-4.1c0-0.218-0.182-0.396-0.406-0.396h-8.815c-0.224 0-0.406 0.178-0.406 0.396l0.001 4.1z"></path>
        </symbol>
        <symbol id="water" viewBox="0 0 32 32">
            <path stroke-linejoin="miter" stroke-linecap="butt" stroke-miterlimit="10"
                stroke-width="2.4"
                d="M25 20c0 5.523-3.477 9-9 9s-9-3.477-9-9c0-5.927 6.452-13.928 8.431-16.242 0.070-0.082 0.158-0.148 0.256-0.194s0.205-0.069 0.314-0.069c0.108 0 0.215 0.023 0.314 0.069s0.186 0.111 0.256 0.194c1.978 2.314 8.43 10.316 8.43 16.242z"></path>
            <path stroke-linejoin="round" stroke-linecap="round" stroke-miterlimit="4"
                stroke-width="2.4"
                d="M21.5 20.5c0 1.193-0.474 2.338-1.318 3.182s-1.988 1.318-3.182 1.318"></path>
        </symbol>
    </defs>
</svg>