<svg xmlns="http://www.w3.org/2000/svg" aria-hidden="true"
    style="position:absolute;width:0;height:0;overflow:hidden">
    <defs>
        <symbol id="adults" viewBox="0 0 32 32">
            <path
                d="M9.067 24.133h-4.4c-.267 0-.4-.133-.533-.267s-.267-.4-.133-.667c.8-2.267 2.8-3.6 5.067-3.6 2.8 0 5.067-2.4 5.067-5.2s-2.267-5.467-5.067-5.467c-2.8 0-5.067 2.4-5.067 5.333a5.69 5.69 0 0 0 1.333 3.6c-1.733.933-3.067 2.4-3.867 4.4-.267.933-.133 2.133.533 3.067s1.6 1.467 2.667 1.467h4.4c.8 0 1.333-.533 1.333-1.333s-.533-1.333-1.333-1.333zm-2.4-9.866c0-1.467 1.067-2.533 2.4-2.533s2.4 1.2 2.4 2.533c0 1.467-1.067 2.533-2.4 2.533s-2.4-1.2-2.4-2.533z" />
            <path
                d="M30.533 21.467c-.933-2.533-2.8-4.4-4.933-5.467 1.2-1.067 1.867-2.667 1.867-4.533C27.467 8 24.8 5.2 21.6 5.2s-5.867 2.8-5.867 6.267A6.35 6.35 0 0 0 17.6 16c-2.133 1.067-4 2.933-4.933 5.467-.667 1.2-.4 2.533.267 3.6s1.867 1.6 3.067 1.6h11.067c1.2 0 2.4-.667 3.067-1.6.8-1.067.933-2.4.4-3.6zM18.267 11.6c0-2 1.467-3.6 3.2-3.6s3.2 1.6 3.2 3.6-1.467 3.6-3.2 3.6-3.2-1.733-3.2-3.6zm9.6 12c-.133.133-.4.533-.8.533H16c-.533 0-.8-.4-.8-.533-.133-.133-.4-.667-.133-1.2 1.067-2.8 3.733-4.667 6.533-4.667s5.467 1.867 6.533 4.667c.133.533-.133 1.067-.267 1.2z" />
        </symbol>
        <symbol id="icon-air" viewBox="0 0 37 32">
            <path
                d="M18.253 0c-1.251 0-2.463.427-3.431 1.208s-1.63 1.867-1.876 3.075l-.097.479a.8.8 0 0 0 .11.632c.06.093.139.172.232.234a.857.857 0 0 0 .638.126.832.832 0 0 0 .653-.671l.098-.478c.185-.895.701-1.692 1.447-2.234a3.793 3.793 0 0 1 4.999.488 3.66 3.66 0 0 1 .973 2.471c0 .979-.395 1.919-1.098 2.611s-1.657 1.082-2.652 1.083H6.166c-.221 0-.433.086-.589.24s-.244.363-.244.58c0 .218.088.426.244.58s.368.24.589.24h12.083c1.413-.034 2.757-.611 3.745-1.607s1.541-2.333 1.541-3.725-.552-2.729-1.539-3.726a5.457 5.457 0 0 0-3.744-1.609zm9.58 7.385c-1.105 0-2.165.432-2.946 1.202s-1.22 1.813-1.22 2.901c0 .218.088.426.244.58s.368.24.589.24.433-.086.589-.24a.816.816 0 0 0 .244-.58c0-.487.147-.963.421-1.368s.665-.72 1.122-.907c.457-.186.959-.235 1.444-.14s.93.329 1.28.674a2.432 2.432 0 0 1 .542 2.682c-.189.45-.51.834-.921 1.105a2.525 2.525 0 0 1-1.389.415H6.165c-.221 0-.433.087-.589.24a.814.814 0 0 0 0 1.16c.156.154.368.24.589.24h16.25c.553.001 1.082.218 1.472.604s.608.908.607 1.452c-.001.544-.222 1.065-.613 1.449s-.922.599-1.474.598c-.498 0-.979-.173-1.36-.489s-.635-.754-.718-1.237l-.008-.049a.806.806 0 0 0-.331-.55.854.854 0 0 0-.631-.15.844.844 0 0 0-.549.342.806.806 0 0 0-.133.626l.008.049c.148.866.603 1.653 1.285 2.22a3.813 3.813 0 0 0 5.092-.203 3.676 3.676 0 0 0 1.103-2.612 3.63 3.63 0 0 0-.632-2.051h2.298c1.105 0 2.165-.432 2.946-1.202s1.22-1.813 1.22-2.901-.439-2.132-1.22-2.901a4.2 4.2 0 0 0-2.946-1.202z" />
            <path
                d="m18.253 0 .165-6.665-.083-.002h-.083L18.253 0zm-5.306 4.283L6.414 2.954l-.002.011 6.535 1.318zm-.097.479 6.483 1.554.028-.117.024-.118-6.535-1.318zm1.633.322-6.53-1.345-.025.123-.021.124 6.576 1.098zm.099-.478zM22 5.332h6.667v-.017L22 5.332zm-3.75 3.694v6.667h.003l-.003-6.667zm-12.917.82zm12.917.821v6.667h.08l.08-.002-.161-6.665zm7.083.82zm-20 3.282zm17.084.821.013-6.667h-.013v6.667zm-.009 4.102.013-6.667h-.018l.005 6.667zm-2.078-1.726-6.573 1.113.002.011.002.011 6.569-1.135zm-.008-.049-6.605.909.014.102.017.102 6.573-1.113zm-1.644.269 6.573-1.113-.017-.099-.02-.099-6.537 1.311zm.009.049-6.573 1.113.002.011 6.571-1.124zm3.721 3.098.003-6.667h-.004l.001 6.667zm3.759-3.692 6.667.012v-.012h-6.667zm-.632-2.051V8.923H12.94l7.082 10.415 5.513-3.749zM18.252-6.667a12.132 12.132 0 0 0-7.616 2.687L19.01 6.396a1.203 1.203 0 0 1-.755.271l-.003-13.333zM10.636-3.98a11.985 11.985 0 0 0-4.222 6.934L19.48 5.612a1.347 1.347 0 0 1-.47.783L10.636-3.981zM6.412 2.965l-.097.479 13.07 2.637.097-.479-13.07-2.637zm-.045.243a7.492 7.492 0 0 0-.096 3.023l13.136-2.283a5.855 5.855 0 0 1-.075 2.369L6.366 3.209zm-.096 3.023a7.478 7.478 0 0 0 1.104 2.805l11.168-7.283c.432.662.727 1.408.864 2.195L6.271 6.231zm1.105 2.805a7.497 7.497 0 0 0 2.098 2.127L16.909.095a5.83 5.83 0 0 1 1.635 1.658L7.376 9.036zm2.098 2.127a7.509 7.509 0 0 0 2.736 1.134L14.786-.785a5.829 5.829 0 0 1 2.123.88L9.474 11.163zm2.736 1.133a7.511 7.511 0 0 0 2.95-.009L12.5-.778a5.806 5.806 0 0 1 2.286-.007L12.21 12.297zm2.95-.009a7.493 7.493 0 0 0 2.728-1.152L10.382.115A5.82 5.82 0 0 1 12.5-.779l2.66 13.065zm2.728-1.152a7.49 7.49 0 0 0 2.085-2.141L8.757 1.784A5.835 5.835 0 0 1 10.382.115l7.506 11.02zm2.085-2.14a7.482 7.482 0 0 0 1.086-2.812L7.908 3.987a5.851 5.851 0 0 1 .85-2.201l11.216 7.21zm1.04-2.567.098-.478L8.052 3.261l-.098.478 13.059 2.689zm.098-.475a2.977 2.977 0 0 1-1.163 1.812L12.111-3.022a10.354 10.354 0 0 0-4.058 6.28l13.058 2.694zm-1.164 1.813a2.877 2.877 0 0 1-1.973.539l1.297-13.27a10.46 10.46 0 0 0-7.162 1.944l7.837 10.787zm-1.972.539a2.902 2.902 0 0 1-1.849-.925l9.803-9.038a10.435 10.435 0 0 0-6.656-3.307l-1.297 13.27zm-1.849-.925a3.01 3.01 0 0 1-.793-2.032l13.333-.033a10.327 10.327 0 0 0-2.738-6.973L16.125 7.38zm-.793-2.048c0-.822.332-1.589.89-2.138l9.357 9.499a10.333 10.333 0 0 0 3.087-7.361H15.334zm.89-2.138a2.888 2.888 0 0 1 2.024-.835l.006 13.333a10.447 10.447 0 0 0 7.327-3l-9.357-9.499zm2.027-.835H6.167v13.333H18.25V2.359zm-12.083 0A7.507 7.507 0 0 0 .9 4.516l9.355 9.501a5.826 5.826 0 0 1-4.088 1.676V2.36zM.9 4.516a7.48 7.48 0 0 0-2.233 5.331H12c0 1.584-.64 3.082-1.745 4.17L.9 4.516zm-2.233 5.33c0 2.019.816 3.935 2.233 5.331l9.355-9.501A5.852 5.852 0 0 1 12 9.846H-1.333zM.9 15.177a7.51 7.51 0 0 0 5.267 2.157V4.001c1.514 0 2.986.591 4.088 1.676L.9 15.178zm5.267 2.156H18.25V4H6.167v13.333zm12.244-.002a12.124 12.124 0 0 0 8.318-3.578L17.26 4.366c.236-.238.536-.357.829-.364l.322 13.329zm8.318-3.578a11.959 11.959 0 0 0 3.473-8.416l-13.333-.004c0-.38.152-.725.391-.967l9.469 9.387zm3.473-8.416a11.956 11.956 0 0 0-3.468-8.418L17.259 6.3a1.375 1.375 0 0 1-.391-.967l13.333.004zm-3.468-8.418a12.12 12.12 0 0 0-8.316-3.583l-.33 13.329a1.21 1.21 0 0 1-.829-.365l9.475-9.381zM27.833.718c-2.84 0-5.584 1.11-7.624 3.118l9.355 9.501a2.469 2.469 0 0 1-1.731.715V.719zM20.21 3.836A10.737 10.737 0 0 0 17 11.487h13.333c0 .714-.289 1.377-.769 1.849l-9.355-9.501zM17 11.487c0 2.019.816 3.935 2.233 5.331l9.355-9.501a5.852 5.852 0 0 1 1.745 4.17H17zm2.233 5.331a7.51 7.51 0 0 0 5.267 2.157V5.642c1.514 0 2.987.591 4.088 1.676l-9.355 9.501zm5.267 2.156a7.507 7.507 0 0 0 5.267-2.157l-9.355-9.501A5.826 5.826 0 0 1 24.5 5.64v13.333zm5.267-2.156A7.48 7.48 0 0 0 32 11.487H18.667c0-1.584.64-3.082 1.745-4.17l9.355 9.501zM32 11.487c0 .855-.258 1.682-.729 2.376L20.238 6.376a9.104 9.104 0 0 0-1.572 5.111h13.333zm-.729 2.376a4.173 4.173 0 0 1-1.877 1.523L24.359 3.04a9.163 9.163 0 0 0-4.121 3.336l11.033 7.487zm-1.877 1.523a4.13 4.13 0 0 1-2.355.229L29.602 2.53a9.212 9.212 0 0 0-5.243.509l5.035 12.346zm-2.354.229a4.15 4.15 0 0 1-2.116-1.118l9.355-9.501a9.181 9.181 0 0 0-4.676-2.466L27.04 15.615zm-2.116-1.118a4.218 4.218 0 0 1-1.173-2.17l13.069-2.64a9.117 9.117 0 0 0-2.542-4.691l-9.355 9.501zm-1.173-2.17a4.245 4.245 0 0 1 .247-2.483l12.29 5.17a9.091 9.091 0 0 0 .532-5.327l-13.069 2.64zm.247-2.483c.328-.78.877-1.43 1.56-1.88l7.328 11.139a9.138 9.138 0 0 0 3.402-4.089l-12.29-5.17zm1.56-1.88a4.137 4.137 0 0 1 2.275-.682v13.333c1.79 0 3.548-.522 5.053-1.512L25.558 7.964zm2.275-.682H6.166v13.333h21.667V7.282zm-21.666 0A7.507 7.507 0 0 0 .9 9.439l9.355 9.501a5.826 5.826 0 0 1-4.088 1.676V7.283zM.9 9.439a7.48 7.48 0 0 0-2.233 5.331H12c0 1.584-.64 3.082-1.745 4.17L.9 9.439zm-2.233 5.33c0 2.019.816 3.935 2.233 5.331l9.355-9.501A5.852 5.852 0 0 1 12 14.769H-1.333zM.9 20.1a7.51 7.51 0 0 0 5.267 2.157V8.924c1.514 0 2.986.591 4.088 1.676L.9 20.101zm5.267 2.156h16.25V8.923H6.167v13.333zm16.237 0a4.565 4.565 0 0 1-3.202-1.322l9.374-9.482a8.762 8.762 0 0 0-6.146-2.529l-.026 13.333zm-3.202-1.321a4.634 4.634 0 0 1-1.373-3.303l13.333.027a8.7 8.7 0 0 0-2.587-6.206l-9.374 9.482zm-1.373-3.303a4.631 4.631 0 0 1 1.386-3.297l9.336 9.519a8.704 8.704 0 0 0 2.612-6.195l-13.333-.027zm1.386-3.297a4.569 4.569 0 0 1 3.207-1.309l-.026 13.333a8.761 8.761 0 0 0 6.155-2.505l-9.336-9.519zm3.189-1.309a4.535 4.535 0 0 1 2.905 1.05L16.79 24.333a8.79 8.79 0 0 0 5.624 2.027l-.009-13.333zm2.904 1.049a4.599 4.599 0 0 1 1.591 2.756l-13.139 2.27a8.736 8.736 0 0 0 3.028 5.231l8.519-10.257zm1.595 2.778-.008-.049-13.146 2.225.008.049 13.146-2.225zm.023.155a7.497 7.497 0 0 0-1.001-2.837l-11.424 6.875a5.839 5.839 0 0 1-.783-2.221l13.209-1.818zm-1.001-2.837a7.499 7.499 0 0 0-2.016-2.198L16.072 22.76a5.844 5.844 0 0 1-1.572-1.714l11.424-6.875zm-2.016-2.198a7.511 7.511 0 0 0-2.686-1.232l-3.065 12.976a5.826 5.826 0 0 1-2.085-.957l7.837-10.787zm-2.686-1.232a7.508 7.508 0 0 0-2.941-.102l2.155 13.158a5.832 5.832 0 0 1-2.279-.079l3.065-12.976zm-2.941-.103a7.5 7.5 0 0 0-2.762 1.04l7.061 11.31a5.827 5.827 0 0 1-2.143.807l-2.155-13.158zm-2.763 1.041a7.49 7.49 0 0 0-2.162 2.047l10.907 7.669a5.84 5.84 0 0 1-1.684 1.595l-7.061-11.31zm-2.162 2.047a7.475 7.475 0 0 0-1.199 2.755l13.045 2.759a5.85 5.85 0 0 1-.938 2.155l-10.907-7.669zm-1.199 2.754a7.472 7.472 0 0 0-.016 3.016l13.073-2.622a5.863 5.863 0 0 1-.012 2.364l-13.045-2.759zm-.053 2.819.008.049 13.146-2.225-.008-.049-13.146 2.225zm.01.06a10.364 10.364 0 0 0 3.591 6.22l8.531-10.247a2.967 2.967 0 0 1 1.021 1.779l-13.142 2.248zm3.591 6.22A10.47 10.47 0 0 0 22.41 28l-.003-13.333a2.86 2.86 0 0 1 1.83.665l-8.531 10.247zM22.405 28a10.455 10.455 0 0 0 7.33-2.991l-9.344-9.511a2.88 2.88 0 0 1 2.02-.831L22.405 28zm7.33-2.991a10.338 10.338 0 0 0 3.098-7.355L19.5 17.63c.001-.82.334-1.585.891-2.132l9.344 9.511zm3.098-7.368c0-2.147-.664-4.151-1.785-5.8l-11.026 7.497a3.027 3.027 0 0 1-.522-1.697h13.333zm-7.298 4.615h2.298V8.923h-2.298v13.333zm2.298 0c2.84 0 5.584-1.11 7.624-3.118l-9.355-9.501a2.469 2.469 0 0 1 1.731-.715v13.333zm7.624-3.117a10.735 10.735 0 0 0 3.21-7.651H25.334c0-.714.289-1.377.769-1.849l9.355 9.501zm3.21-7.652c0-2.89-1.167-5.64-3.21-7.651l-9.355 9.501a2.597 2.597 0 0 1-.769-1.849h13.333zm-3.21-7.651A10.865 10.865 0 0 0 27.833.718v13.333c-.63 0-1.255-.245-1.731-.715l9.355-9.501z" />
        </symbol>
        <symbol id="icon-alcove" viewBox="0 0 46 32">
            <path
                d="M2.608 1.8h12.409c.105 0 .203-.04.278-.112L16.487.525a1.845 1.845 0 0 1 1.297-.524h18.817c.876 0 1.69.425 2.176 1.136l2.255 3.3c.32.468.349 1.067.077 1.564s-.8.805-1.377.805h-9.698v.956h4.967c1.317 0 2.501.763 3.018 1.945l2.908 6.65 2.548.994c1.36.531 2.24 1.797 2.24 3.227v6.158c0 .918-.766 1.666-1.708 1.666h-2.964c-.345 2.039-2.164 3.599-4.35 3.599s-4.005-1.561-4.35-3.599H16.14c-.345 2.039-2.164 3.599-4.35 3.599s-4.005-1.561-4.35-3.599H1.519c-.837 0-1.518-.664-1.518-1.481V4.345c0-1.403 1.17-2.544 2.608-2.544zm34.084 28.794c1.637 0 2.969-1.299 2.969-2.896s-1.332-2.896-2.969-2.896c-1.637 0-2.969 1.299-2.969 2.896s1.332 2.896 2.969 2.896zm-6.658-3.599h2.307l.02-.105.014-.071c.012-.055.025-.11.039-.164.003-.011.005-.023.009-.034a3.34 3.34 0 0 1 .057-.195l.019-.056a5.274 5.274 0 0 1 .122-.321l.033-.075c.016-.037.032-.072.05-.108l.038-.075.054-.103.041-.074.059-.101.043-.071.066-.101.044-.065.077-.105.04-.055.109-.135.016-.02c.043-.051.087-.1.132-.148l.043-.044.096-.099.056-.053.09-.084.062-.054.09-.077.066-.052.093-.071a1.22 1.22 0 0 1 .069-.05l.097-.068.069-.046c.034-.023.069-.044.104-.065l.068-.041c.038-.023.077-.044.116-.065l.059-.033.168-.084.013-.006c.061-.029.123-.056.186-.082l.061-.024.13-.05.075-.026.12-.039.082-.024c.039-.011.078-.023.118-.033.028-.007.056-.015.085-.021l.118-.026.087-.018c.04-.007.081-.015.122-.021l.086-.014.128-.016.082-.009.143-.011.07-.005a3.893 3.893 0 0 1 .502.005c.048.003.096.006.143.011.028.002.055.006.082.009l.128.016c.029.004.058.008.087.014.041.006.081.014.122.021l.087.018a4.084 4.084 0 0 1 .321.08l.082.024.12.039.075.026.13.05.061.024c.062.026.125.053.186.082l.013.006c.057.027.112.055.168.084l.059.033.116.065.068.041.104.065.069.046c.033.023.065.044.097.068l.069.05.093.071.066.052c.031.025.061.051.09.077l.062.054.09.084.056.053.096.099.043.044c.045.048.089.098.132.148l.016.02c.037.044.073.089.109.135l.04.055.077.105.044.065.066.101.043.071.059.101.041.074.054.103.038.075.05.108c.011.025.023.049.033.075.017.038.032.077.047.116a2.087 2.087 0 0 1 .075.205l.019.056c.02.064.039.129.056.195l.009.034c.014.055.027.109.039.164l.014.071.02.105h2.963a.263.263 0 0 0 .266-.26v-2.946h-1.124v-1.406h1.124v-1.806c0-.851-.523-1.606-1.333-1.922l-2.697-1.052H30.031v9.392zm0-10.798h9.257l-2.598-5.939a1.84 1.84 0 0 0-1.692-1.09h-4.967v7.03zM11.789 30.594c1.637 0 2.969-1.299 2.969-2.896s-1.332-2.896-2.969-2.896c-.051 0-.102.001-.153.004-1.364.067-2.488 1.038-2.756 2.309a2.812 2.812 0 0 0-.061.583c0 1.597 1.332 2.896 2.969 2.896zM1.441 22.383h1.124v1.406H1.441v3.131c0 .041.035.075.077.075h5.92l.02-.104.014-.072c.012-.054.024-.107.038-.16l.009-.038a4.26 4.26 0 0 1 .056-.193l.02-.058.046-.132.028-.072.046-.114a2.049 2.049 0 0 1 .084-.182l.038-.076.054-.102.042-.074.059-.1a2.156 2.156 0 0 1 .11-.171 1.08 1.08 0 0 1 .044-.066l.076-.104.042-.057.106-.132a3.757 3.757 0 0 1 .15-.171l.043-.045c.032-.033.063-.066.096-.098l.056-.053.089-.083.062-.055c.029-.025.059-.051.09-.075l.066-.053.092-.071.069-.05.096-.067.07-.047c.034-.023.069-.044.103-.065l.069-.042c.038-.023.077-.044.116-.065.02-.011.04-.023.061-.033.055-.029.11-.057.167-.083l.014-.007c.061-.029.123-.056.186-.082l.061-.024.13-.05.076-.026c.039-.014.079-.027.119-.039l.082-.024c.039-.011.078-.023.118-.033.028-.007.056-.015.085-.021l.118-.026.087-.018c.04-.007.081-.015.122-.021l.086-.014.128-.016.082-.009.143-.011.07-.005a3.893 3.893 0 0 1 .502.005c.048.003.096.006.143.011.028.002.055.006.082.009l.128.016c.029.004.058.008.086.014.041.006.081.014.122.021l.087.018a4.084 4.084 0 0 1 .321.08l.082.024c.04.012.08.026.119.039l.076.026.13.05.061.024c.062.026.124.053.186.082l.014.007c.056.026.112.054.167.083l.06.033.116.065.069.042c.035.021.069.042.103.065l.07.047c.032.022.065.044.096.067l.069.05.092.071c.023.017.044.035.066.053.031.025.061.05.09.076l.062.054.09.084.056.053.096.098.043.044c.045.048.089.098.132.148l.017.021c.036.044.073.088.107.134l.042.055.077.105.044.066c.023.033.044.066.066.1l.044.071.059.101.041.074.055.103a2.6 2.6 0 0 1 .087.183 2.343 2.343 0 0 1 .08.191l.028.071c.017.045.032.09.047.135l.019.055c.02.064.039.129.057.195l.007.031c.014.056.028.111.04.168l.013.069.021.106h12.453V6.106c0-.388.323-.703.721-.703h10.419c.018 0 .073 0 .107-.062s.004-.106-.006-.12l-2.255-3.3a1.18 1.18 0 0 0-.977-.51H17.784a.397.397 0 0 0-.278.112l-1.192 1.163a1.845 1.845 0 0 1-1.297.524H2.608c-.643 0-1.167.511-1.167 1.138v18.039z" />
            <path
                d="M20.116 7.198h4.558c.921 0 1.67.731 1.67 1.629v15.046a.712.712 0 0 1-.721.703h-6.456a.712.712 0 0 1-.721-.703V8.827c-.001-.899.748-1.629 1.669-1.629zm-.229 15.972h5.015v-8.267h-5.015v8.267zm0-9.673h5.015V8.828a.226.226 0 0 0-.229-.223h-4.558c-.126 0-.229.1-.229.223v4.669h.001zM5.536 7.198h8.814c1.019 0 1.848.809 1.848 1.802v4.1c0 .994-.829 1.802-1.848 1.802H5.535c-1.019 0-1.848-.809-1.848-1.802V9c.001-.994.83-1.802 1.848-1.802zM5.129 13.1c0 .218.182.396.406.396h8.814a.402.402 0 0 0 .406-.396V9a.402.402 0 0 0-.406-.396H5.534A.402.402 0 0 0 5.128 9v4.1h.001z" />
        </symbol>
        <symbol id="beds" viewBox="0 0 32 32">
            <path stroke-linecap="round" stroke-linejoin="round" stroke-width="2.24"
                d="M3 26v-7a4.012 4.012 0 0 1 4-4h18a4.012 4.012 0 0 1 4 4v7m-5-11H6V8.5A2.504 2.504 0 0 1 8.5 6h15A2.504 2.504 0 0 1 26 8.5V15h-2z" />
            <path stroke-linecap="round" stroke-linejoin="round" stroke-width="2.24"
                d="M3 26v-.5A1.504 1.504 0 0 1 4.5 24h23a1.504 1.504 0 0 1 1.5 1.5v.5M7 15v-1a2.002 2.002 0 0 1 2-2h5a2.002 2.002 0 0 1 2 2m0 0v1m0-1a2.008 2.008 0 0 1 2-2h5a2.002 2.002 0 0 1 2 2v1" />
        </symbol>
        <symbol id="icon-calendar" viewBox="0 0 32 32">
            <path stroke-linecap="round" stroke-linejoin="round" stroke-width="2.4"
                d="M25.333 5.333H6.666A2.667 2.667 0 0 0 3.999 8v18.667a2.667 2.667 0 0 0 2.667 2.667h18.667A2.667 2.667 0 0 0 28 26.667V8a2.667 2.667 0 0 0-2.667-2.667zM21.333 2.667V8M10.667 2.667V8M4 13.333h24" />
        </symbol>
        <symbol id="icon-cd" viewBox="0 0 32 32">
            <path stroke-width="2.4"
                d="M16 28c6.627 0 12-5.373 12-12S22.627 4 16 4 4 9.373 4 16s5.373 12 12 12z" />
            <path stroke-linecap="round" stroke-width="2.4" d="M8.667 16A7.333 7.333 0 0 1 16 8.667" />
            <path stroke-width="2.4"
                d="M16 19.333a3.333 3.333 0 1 0 0-6.665 3.333 3.333 0 0 0 0 6.665z" />
        </symbol>
        <symbol id="icon-conditioner" viewBox="0 0 32 32">
            <path stroke-linecap="round" stroke-linejoin="round" stroke-width="2.4"
                d="M28.571 1.143H3.428a2.287 2.287 0 0 0-2.285 2.285v11.429a2.287 2.287 0 0 0 2.285 2.285h25.143a2.287 2.287 0 0 0 2.286-2.285V3.428a2.283 2.283 0 0 0-2.286-2.285z" />
            <path stroke-linecap="round" stroke-linejoin="round" stroke-width="2.4"
                d="M25.143 17.143v-4.571a2.283 2.283 0 0 0-2.286-2.285H9.143a2.287 2.287 0 0 0-2.285 2.285v4.571M5.714 28.572h.229a3.2 3.2 0 0 0 3.2-3.2v-2.514m17.143 5.714h-.229a3.2 3.2 0 0 1-3.2-3.2v-2.514M16 30.857v-8" />
        </symbol>
        <symbol id="icon-freezer" viewBox="0 0 32 32">
            <path stroke-linecap="round" stroke-linejoin="round" stroke-width="2.08"
                d="M23.4 3H8.607a2 2 0 0 0-2 2v20.387a2 2 0 0 0 2 2H23.4a2 2 0 0 0 2-2V5a2 2 0 0 0-2-2z" />
            <path stroke-linecap="round" stroke-linejoin="round" stroke-width="2.08"
                d="M6.607 13.127h18.787m-15.081-2.56v-4.04m0 12.913V15.4M8.427 27.387v.7a.911.911 0 0 0 .907.913h1.647a.911.911 0 0 0 .914-.914v-.7m8.205.001v.7a.913.913 0 0 0 .914.914h1.653a.913.913 0 0 0 .914-.914v-.7" />
        </symbol>
        <symbol id="icon-fully" viewBox="0 0 46 32">
            <path
                d="M2.608 1.8h12.409c.105 0 .203-.04.278-.112L16.487.525a1.845 1.845 0 0 1 1.297-.524h18.817c.876 0 1.69.425 2.176 1.136l2.255 3.3c.32.468.349 1.067.077 1.564s-.8.805-1.377.805h-9.698v.956h4.967c1.317 0 2.501.763 3.018 1.945l2.908 6.65 2.548.994c1.36.531 2.24 1.797 2.24 3.227v6.158c0 .918-.766 1.666-1.708 1.666h-2.964c-.345 2.039-2.164 3.599-4.35 3.599s-4.005-1.561-4.35-3.599H16.14c-.345 2.039-2.164 3.599-4.35 3.599s-4.005-1.561-4.35-3.599H1.519c-.837 0-1.518-.664-1.518-1.481V4.345c0-1.403 1.17-2.544 2.608-2.544zm34.084 28.794c1.637 0 2.969-1.299 2.969-2.896s-1.332-2.896-2.969-2.896c-1.637 0-2.969 1.299-2.969 2.896s1.332 2.896 2.969 2.896zm-6.658-3.599h2.307l.02-.105.014-.071c.012-.055.025-.11.039-.164.003-.011.005-.023.009-.034a3.34 3.34 0 0 1 .057-.195l.019-.056a5.274 5.274 0 0 1 .122-.321l.033-.075c.016-.037.032-.072.05-.108l.038-.075.054-.103.041-.074.059-.101.043-.071.066-.101.044-.065.077-.105.04-.055.109-.135.016-.02c.043-.051.087-.1.132-.148l.043-.044.096-.099.056-.053.09-.084.062-.054.09-.077.066-.052.093-.071a1.22 1.22 0 0 1 .069-.05l.097-.068.069-.046c.034-.023.069-.044.104-.065l.068-.041c.038-.023.077-.044.116-.065l.059-.033.168-.084.013-.006c.061-.029.123-.056.186-.082l.061-.024.13-.05.075-.026.12-.039.082-.024c.039-.011.078-.023.118-.033.028-.007.056-.015.085-.021l.118-.026.087-.018c.04-.007.081-.015.122-.021l.086-.014.128-.016.082-.009.143-.011.07-.005a3.893 3.893 0 0 1 .502.005c.048.003.096.006.143.011.028.002.055.006.082.009l.128.016c.029.004.058.008.087.014.041.006.081.014.122.021l.087.018a4.084 4.084 0 0 1 .321.08l.082.024.12.039.075.026.13.05.061.024c.062.026.125.053.186.082l.013.006c.057.027.112.055.168.084l.059.033.116.065.068.041.104.065.069.046c.033.023.065.044.097.068l.069.05.093.071.066.052c.031.025.061.051.09.077l.062.054.09.084.056.053.096.099.043.044c.045.048.089.098.132.148l.016.02c.037.044.073.089.109.135l.04.055.077.105.044.065.066.101.043.071.059.101.041.074.054.103.038.075.05.108c.011.025.023.049.033.075.017.038.032.077.047.116a2.087 2.087 0 0 1 .075.205l.019.056c.02.064.039.129.056.195l.009.034c.014.055.027.109.039.164l.014.071.02.105h2.963a.263.263 0 0 0 .266-.26v-2.946h-1.124v-1.406h1.124v-1.806c0-.851-.523-1.606-1.333-1.922l-2.697-1.052H30.031v9.392zm0-10.798h9.257l-2.598-5.939a1.84 1.84 0 0 0-1.692-1.09h-4.967v7.03zM11.789 30.594c1.637 0 2.969-1.299 2.969-2.896s-1.332-2.896-2.969-2.896c-.051 0-.102.001-.153.004-1.364.067-2.488 1.038-2.756 2.309a2.812 2.812 0 0 0-.061.583c0 1.597 1.332 2.896 2.969 2.896zM1.441 22.383h1.124v1.406H1.441v3.131c0 .041.035.075.077.075h5.92l.02-.104.014-.072c.012-.054.024-.107.038-.16l.009-.038a4.26 4.26 0 0 1 .056-.193l.02-.058.046-.132.028-.072.046-.114a2.049 2.049 0 0 1 .084-.182l.038-.076.054-.102.042-.074.059-.1a2.156 2.156 0 0 1 .11-.171 1.08 1.08 0 0 1 .044-.066l.076-.104.042-.057.106-.132a3.757 3.757 0 0 1 .15-.171l.043-.045c.032-.033.063-.066.096-.098l.056-.053.089-.083.062-.055c.029-.025.059-.051.09-.075l.066-.053.092-.071.069-.05.096-.067.07-.047c.034-.023.069-.044.103-.065l.069-.042c.038-.023.077-.044.116-.065.02-.011.04-.023.061-.033.055-.029.11-.057.167-.083l.014-.007c.061-.029.123-.056.186-.082l.061-.024.13-.05.076-.026c.039-.014.079-.027.119-.039l.082-.024c.039-.011.078-.023.118-.033.028-.007.056-.015.085-.021l.118-.026.087-.018c.04-.007.081-.015.122-.021l.086-.014.128-.016.082-.009.143-.011.07-.005a3.893 3.893 0 0 1 .502.005c.048.003.096.006.143.011.028.002.055.006.082.009l.128.016c.029.004.058.008.086.014.041.006.081.014.122.021l.087.018a4.084 4.084 0 0 1 .321.08l.082.024c.04.012.08.026.119.039l.076.026.13.05.061.024c.062.026.124.053.186.082l.014.007c.056.026.112.054.167.083l.06.033.116.065.069.042c.035.021.069.042.103.065l.07.047c.032.022.065.044.096.067l.069.05.092.071c.023.017.044.035.066.053.031.025.061.05.09.076l.062.054.09.084.056.053.096.098.043.044c.045.048.089.098.132.148l.017.021c.036.044.073.088.107.134l.042.055.077.105.044.066c.023.033.044.066.066.1l.044.071.059.101.041.074.055.103a2.6 2.6 0 0 1 .087.183 2.343 2.343 0 0 1 .08.191l.028.071c.017.045.032.09.047.135l.019.055c.02.064.039.129.057.195l.007.031c.014.056.028.111.04.168l.013.069.021.106h12.453V6.106c0-.388.323-.703.721-.703h10.419c.018 0 .073 0 .107-.062s.004-.106-.006-.12l-2.255-3.3a1.18 1.18 0 0 0-.977-.51H17.784a.397.397 0 0 0-.278.112l-1.192 1.163a1.845 1.845 0 0 1-1.297.524H2.608c-.643 0-1.167.511-1.167 1.138v18.039z" />
            <path
                d="M20.116 7.198h4.558c.921 0 1.67.731 1.67 1.629v15.046a.712.712 0 0 1-.721.703h-6.456a.712.712 0 0 1-.721-.703V8.827c-.001-.899.748-1.629 1.669-1.629zm-.229 15.972h5.015v-8.267h-5.015v8.267zm0-9.673h5.015V8.828a.226.226 0 0 0-.229-.223h-4.558c-.126 0-.229.1-.229.223l.001 4.669z" />
        </symbol>
        <symbol id="icon-gas" viewBox="0 0 32 32">
            <path
                d="M25.072 13.991c-.368-.453-.816-.846-1.232-1.239-1.072-.907-2.288-1.556-3.311-2.508-2.384-2.206-2.912-5.848-1.392-8.644-1.52.348-2.848 1.133-3.983 1.995-4.143 3.143-5.775 8.689-3.823 13.449.064.151.128.302.128.499 0 .332-.24.635-.56.756-.368.151-.752.06-1.056-.181a.901.901 0 0 1-.224-.257c-1.808-2.161-2.096-5.259-.88-7.737-2.672 2.055-4.127 5.531-3.919 8.81.096.756.192 1.511.464 2.267.224.907.656 1.813 1.136 2.614 1.728 2.614 4.719 4.488 7.935 4.866 3.423.408 7.087-.181 9.71-2.418 2.927-2.508 3.951-6.528 2.448-9.974l-.208-.393c-.336-.695-1.232-1.904-1.232-1.904zm-5.055 9.521c-.448.363-1.184.756-1.76.907-1.792.604-3.583-.242-4.639-1.239 1.904-.423 3.039-1.753 3.375-3.098.272-1.209-.24-2.206-.448-3.37-.192-1.118-.16-2.07.272-3.113.304.574.624 1.148 1.008 1.602 1.232 1.511 3.167 2.176 3.583 4.231.064.212.096.423.096.65.048 1.239-.528 2.599-1.488 3.43z" />
        </symbol>
        <symbol id="icon-heart" viewBox="0 0 32 32">
            <path stroke-linecap="round" stroke-linejoin="round" stroke-width="3.067"
                d="M27.787 6.147a7.326 7.326 0 0 0-10.373 0L16.001 7.56l-1.413-1.413a7.333 7.333 0 0 0-10.374 0 7.333 7.333 0 0 0 0 10.374l11.787 11.787 11.787-11.787a7.345 7.345 0 0 0 2.15-5.187 7.33 7.33 0 0 0-2.15-5.187z" />
        </symbol>
        <symbol id="icon-hob" viewBox="0 0 32 32">
            <path fill="none" stroke="#101828" stroke-width="2.4"
                d="M12 6.667h16a1.335 1.335 0 0 1 1.334 1.334v17.333A1.335 1.335 0 0 1 28 26.668H12m0-20.001H4a1.33 1.33 0 0 0-1.333 1.334v17.333A1.333 1.333 0 0 0 4 26.668h8m0-20.001v20"
                style="stroke:var(--color1, #101828)" />
            <path fill="none" stroke="#101828" stroke-linecap="round" stroke-linejoin="round"
                stroke-width="2.4" d="M7.333 11.333V14m17.334-3.333-8 11.333"
                style="stroke:var(--color1, #101828)" />
            <path
                d="M8.667 18A1.333 1.333 0 1 0 6 18a1.333 1.333 0 0 0 2.667 0zM8.667 22A1.333 1.333 0 1 0 6 22a1.333 1.333 0 0 0 2.667 0z" />
        </symbol>
        <symbol id="icon-kitchen" viewBox="0 0 32 32">
            <path stroke-linecap="round" stroke-linejoin="round" stroke-width="2.4"
                d="M25.333 20V4c-6.421 6.125-6.697 11.092-6.667 16h6.667zm0 0v8H24v-4M10.667 5.333V28m-4-22.667v4a4.003 4.003 0 0 0 4 4 4.003 4.003 0 0 0 4-4v-4" />
        </symbol>
        <symbol id="icon-location" viewBox="0 0 30 32">
            <path stroke-linecap="round" stroke-linejoin="round" stroke-width="1.714"
                d="M23.429 9.524c0 6.667-8.571 12.381-8.571 12.381S6.287 16.191 6.287 9.524a8.571 8.571 0 0 1 17.144 0z" />
            <path stroke-linecap="round" stroke-linejoin="round" stroke-width="1.714"
                d="M14.857 12.381a2.857 2.857 0 1 0 0-5.714 2.857 2.857 0 0 0 0 5.714z" />
        </symbol>
        <symbol id="icon-microwave" viewBox="0 0 32 32">
            <path stroke-linecap="round" stroke-linejoin="round" stroke-width="2.24"
                d="M29.714 5.714H2.285a1.14 1.14 0 0 0-1.143 1.143v18.286a1.14 1.14 0 0 0 1.143 1.143h27.429a1.14 1.14 0 0 0 1.143-1.143V6.857a1.14 1.14 0 0 0-1.143-1.143z" />
            <path stroke-linecap="round" stroke-linejoin="round" stroke-width="2.24"
                d="M25.143 11.428h1.143M25.143 16h1.143m-6.858-5.714H6.857a1.14 1.14 0 0 0-1.143 1.143v9.143a1.14 1.14 0 0 0 1.143 1.143h12.571a1.14 1.14 0 0 0 1.143-1.143v-9.143a1.14 1.14 0 0 0-1.143-1.143z" />
        </symbol>
        <symbol id="icon-patrol" viewBox="0 0 32 32">
            <path
                d="m26.36 9.64.013-.013-4.96-4.96L20 6.08l2.813 2.813a3.324 3.324 0 0 0-1.17 5.464 3.333 3.333 0 0 0 2.357.976c.48 0 .92-.107 1.333-.28v9.613a1.335 1.335 0 0 1-2.277.943 1.335 1.335 0 0 1-.391-.943v-6a2.668 2.668 0 0 0-2.667-2.667h-1.333V6.666a2.668 2.668 0 0 0-2.667-2.667h-8a2.668 2.668 0 0 0-2.667 2.667v21.333h13.333v-10h2v6.667a3.333 3.333 0 1 0 6.667-.001V11.998c0-.92-.373-1.76-.973-2.36zM16 18v7.333H8V16h8v2zm0-4.667H8V6.666h8v6.667zm8 0a1.333 1.333 0 1 1-.002-2.665A1.333 1.333 0 0 1 24 13.333z" />
        </symbol>
        <symbol id="icon-radio" viewBox="0 0 32 32">
            <path stroke-width="2.08"
                d="M2.667 18.667c0-5.028 0-7.543 1.563-9.104C5.791 8 8.306 8 13.334 8h5.333c5.028 0 7.543 0 9.104 1.563 1.563 1.561 1.563 4.076 1.563 9.104s0 7.543-1.563 9.104c-1.561 1.563-4.076 1.563-9.104 1.563h-5.333c-5.028 0-7.543 0-9.104-1.563-1.563-1.561-1.563-4.076-1.563-9.104z" />
            <path stroke-width="2.08"
                d="M6.667 14.667A2.668 2.668 0 0 1 9.334 12h13.333a2.668 2.668 0 0 1 0 5.334H9.334a2.668 2.668 0 0 1-2.667-2.667zm5.333 8a2 2 0 1 1-4.001-.001 2 2 0 0 1 4.001.001z" />
            <path stroke-linecap="round" stroke-width="2.08"
                d="M20 15.333v2m-2.667 5.334H24M8.667 8 20 2.667" />
        </symbol>
        <symbol id="icon-shower" viewBox="0 0 32 32">
            <path stroke-linecap="round" stroke-linejoin="round" stroke-width="2"
                d="m5.333 5.333 3.333 3.333M18 8.667a6.6 6.6 0 0 0-9.334 9.334M20 6.667 6.667 20m12 2.667v.013m-5.334-1.347v.013m4-4.013v.013m4-4.013v.013m-6.666 13.321v.013m8-8.013v.013m4-4.013v.013" />
        </symbol>
        <symbol id="icon-toilet" viewBox="0 0 32 32">
            <path
                d="M24 4c1.939 0 3.269 1.647 4.04 3.313.761 1.653 1.224 3.811 1.287 6.145l.007.541v12.667a1.343 1.343 0 0 1-.409.962 1.352 1.352 0 0 1-.978.371l-.165-.019-3.781-.629-3.781.629a1.33 1.33 0 0 1-.483-.008l-.157-.041-3.579-1.193-3.579 1.193a1.327 1.327 0 0 1-1.135-.138 1.323 1.323 0 0 1-.61-.968l-.009-.159v-3.903c-.708.733-1.595 1.236-2.667 1.236-1.939 0-3.269-1.647-4.04-3.313-.819-1.78-1.293-4.145-1.293-6.687s.473-4.907 1.293-6.687c.735-1.592 1.981-3.164 3.78-3.303l.26-.011h16zm0 2.667H11.709c.12.213.229.429.329.647.821 1.78 1.295 4.145 1.295 6.687v10.817l2.245-.749c.274-.091.569-.091.843 0l3.687 1.229 3.673-.613c.144-.024.293-.024.437 0l2.448.409V14.001c0-2.245-.423-4.213-1.049-5.569C24.94 6.961 24.27 6.668 24 6.668zm-16 0c-.271 0-.94.293-1.617 1.764C5.756 9.787 5.334 11.755 5.334 14s.423 4.213 1.049 5.569C7.06 21.04 7.73 21.333 8 21.333s.94-.293 1.617-1.764c.627-1.356 1.049-3.324 1.049-5.569s-.423-4.213-1.049-5.569C8.94 6.96 8.27 6.667 8 6.667zm0 4.666c.736 0 1.333 1.193 1.333 2.667S8.736 16.667 8 16.667 6.667 15.474 6.667 14 7.264 11.333 8 11.333z" />
        </symbol>
        <symbol id="icon-transmission" viewBox="0 0 32 32">
            <path stroke-linecap="round" stroke-linejoin="round" stroke-width="2.4"
                d="M22.667 14.667h2a2 2 0 0 0 0-4h-2v6.667m0 5.333V28H24a2.668 2.668 0 0 0 0-5.334h-1.333zM4 6.667a2.668 2.668 0 1 0 5.336 0 2.668 2.668 0 0 0-5.336 0z" />
            <path stroke-linecap="round" stroke-linejoin="round" stroke-width="2.4"
                d="M6.667 9.333v4a1.335 1.335 0 0 0 1.334 1.334h4m-.001 0V24a1.33 1.33 0 0 0 1.334 1.333h4M12 14.667h5.333" />
        </symbol>
        <symbol id="icon-tv" viewBox="0 0 32 32">
            <path stroke-linecap="round" stroke-linejoin="round" stroke-width="1.8"
                d="M24 26H8c-2.216 0-4-1.784-4-4V12c0-2.216 1.784-4 4-4h16c2.216 0 4 1.784 4 4v10c0 2.216-1.784 4-4 4zM12 30h8M16 8l6-6M16 8l-6-6" />
        </symbol>
        <symbol id="icon-van" viewBox="0 0 46 32">
            <path
                d="M2.608 1.8h12.409c.105 0 .203-.04.278-.112L16.487.525a1.845 1.845 0 0 1 1.297-.524h18.817c.876 0 1.69.425 2.176 1.136l2.255 3.3c.32.468.349 1.067.077 1.564s-.8.805-1.377.805h-9.698v.956h4.967c1.317 0 2.501.763 3.018 1.945l2.908 6.65 2.548.994c1.36.531 2.24 1.797 2.24 3.227v6.158c0 .918-.766 1.666-1.708 1.666h-2.964c-.345 2.039-2.164 3.599-4.35 3.599s-4.005-1.561-4.35-3.599H16.14c-.345 2.039-2.164 3.599-4.35 3.599s-4.005-1.561-4.35-3.599H1.519c-.837 0-1.518-.664-1.518-1.481V4.345c0-1.403 1.17-2.544 2.608-2.544zm34.084 28.794c1.637 0 2.969-1.299 2.969-2.896s-1.332-2.896-2.969-2.896c-1.637 0-2.969 1.299-2.969 2.896s1.332 2.896 2.969 2.896zm-6.658-3.599h2.307l.02-.105.014-.071c.012-.055.025-.11.039-.164.003-.011.005-.023.009-.034a3.34 3.34 0 0 1 .057-.195l.019-.056a5.274 5.274 0 0 1 .122-.321l.033-.075c.016-.037.032-.072.05-.108l.038-.075.054-.103.041-.074.059-.101.043-.071.066-.101.044-.065.077-.105.04-.055.109-.135.016-.02c.043-.051.087-.1.132-.148l.043-.044.096-.099.056-.053.09-.084.062-.054.09-.077.066-.052.093-.071a1.22 1.22 0 0 1 .069-.05l.097-.068.069-.046c.034-.023.069-.044.104-.065l.068-.041c.038-.023.077-.044.116-.065l.059-.033.168-.084.013-.006c.061-.029.123-.056.186-.082l.061-.024.13-.05.075-.026.12-.039.082-.024c.039-.011.078-.023.118-.033.028-.007.056-.015.085-.021l.118-.026.087-.018c.04-.007.081-.015.122-.021l.086-.014.128-.016.082-.009.143-.011.07-.005a3.893 3.893 0 0 1 .502.005c.048.003.096.006.143.011.028.002.055.006.082.009l.128.016c.029.004.058.008.087.014.041.006.081.014.122.021l.087.018a4.084 4.084 0 0 1 .321.08l.082.024.12.039.075.026.13.05.061.024c.062.026.125.053.186.082l.013.006c.057.027.112.055.168.084l.059.033.116.065.068.041.104.065.069.046c.033.023.065.044.097.068l.069.05.093.071.066.052c.031.025.061.051.09.077l.062.054.09.084.056.053.096.099.043.044c.045.048.089.098.132.148l.016.02c.037.044.073.089.109.135l.04.055.077.105.044.065.066.101.043.071.059.101.041.074.054.103.038.075.05.108c.011.025.023.049.033.075.017.038.032.077.047.116a2.087 2.087 0 0 1 .075.205l.019.056c.02.064.039.129.056.195l.009.034c.014.055.027.109.039.164l.014.071.02.105h2.963a.263.263 0 0 0 .266-.26v-2.946h-1.124v-1.406h1.124v-1.806c0-.851-.523-1.606-1.333-1.922l-2.697-1.052H30.031v9.392zm0-10.798h9.257l-2.598-5.939a1.84 1.84 0 0 0-1.692-1.09h-4.967v7.03zM11.789 30.594c1.637 0 2.969-1.299 2.969-2.896s-1.332-2.896-2.969-2.896c-.051 0-.102.001-.153.004-1.364.067-2.488 1.038-2.756 2.309a2.812 2.812 0 0 0-.061.583c0 1.597 1.332 2.896 2.969 2.896zM1.441 22.383h1.124v1.406H1.441v3.131c0 .041.035.075.077.075h5.92l.02-.104.014-.072c.012-.054.024-.107.038-.16l.009-.038a4.26 4.26 0 0 1 .056-.193l.02-.058.046-.132.028-.072.046-.114a2.049 2.049 0 0 1 .084-.182l.038-.076.054-.102.042-.074.059-.1a2.156 2.156 0 0 1 .11-.171 1.08 1.08 0 0 1 .044-.066l.076-.104.042-.057.106-.132a3.757 3.757 0 0 1 .15-.171l.043-.045c.032-.033.063-.066.096-.098l.056-.053.089-.083.062-.055c.029-.025.059-.051.09-.075l.066-.053.092-.071.069-.05.096-.067.07-.047c.034-.023.069-.044.103-.065l.069-.042c.038-.023.077-.044.116-.065.02-.011.04-.023.061-.033.055-.029.11-.057.167-.083l.014-.007c.061-.029.123-.056.186-.082l.061-.024.13-.05.076-.026c.039-.014.079-.027.119-.039l.082-.024c.039-.011.078-.023.118-.033.028-.007.056-.015.085-.021l.118-.026.087-.018c.04-.007.081-.015.122-.021l.086-.014.128-.016.082-.009.143-.011.07-.005a3.893 3.893 0 0 1 .502.005c.048.003.096.006.143.011.028.002.055.006.082.009l.128.016c.029.004.058.008.086.014.041.006.081.014.122.021l.087.018a4.084 4.084 0 0 1 .321.08l.082.024c.04.012.08.026.119.039l.076.026.13.05.061.024c.062.026.124.053.186.082l.014.007c.056.026.112.054.167.083l.06.033.116.065.069.042c.035.021.069.042.103.065l.07.047c.032.022.065.044.096.067l.069.05.092.071c.023.017.044.035.066.053.031.025.061.05.09.076l.062.054.09.084.056.053.096.098.043.044c.045.048.089.098.132.148l.017.021c.036.044.073.088.107.134l.042.055.077.105.044.066c.023.033.044.066.066.1l.044.071.059.101.041.074.055.103a2.6 2.6 0 0 1 .087.183 2.343 2.343 0 0 1 .08.191l.028.071c.017.045.032.09.047.135l.019.055c.02.064.039.129.057.195l.007.031c.014.056.028.111.04.168l.013.069.021.106h12.453V6.106c0-.388.323-.703.721-.703h10.419c.018 0 .073 0 .107-.062s.004-.106-.006-.12l-2.255-3.3a1.18 1.18 0 0 0-.977-.51H17.784a.397.397 0 0 0-.278.112l-1.192 1.163a1.845 1.845 0 0 1-1.297.524H2.608c-.643 0-1.167.511-1.167 1.138v18.039z" />
            <path
                d="M5.536 7.198h8.814c1.019 0 1.848.809 1.848 1.802v4.1c0 .994-.829 1.802-1.848 1.802H5.535c-1.019 0-1.848-.809-1.848-1.802V9c.001-.994.83-1.802 1.848-1.802zM5.129 13.1c0 .218.182.396.406.396h8.814a.402.402 0 0 0 .406-.396V9a.402.402 0 0 0-.406-.396H5.534A.402.402 0 0 0 5.128 9l.001 4.1z" />
        </symbol>
        <symbol id="icon-water" viewBox="0 0 32 32">
            <path stroke-miterlimit="10" stroke-width="2.4"
                d="M25 20c0 5.523-3.477 9-9 9s-9-3.477-9-9c0-5.927 6.452-13.928 8.431-16.242a.763.763 0 0 1 .57-.263.744.744 0 0 1 .57.263c1.978 2.314 8.43 10.316 8.43 16.242z" />
            <path stroke-linecap="round" stroke-linejoin="round" stroke-width="2.4"
                d="M21.5 20.5A4.5 4.5 0 0 1 17 25" />
        </symbol>
    </defs>
</svg>